<?xml version="1.0" encoding="utf-8"?>
<svg version="1.1" xmlns="http://www.w3.org/2000/svg" xmlns:xlink="http://www.w3.org/1999/xlink"
     viewBox="0 270 1056 265" xml:space="preserve">
<g>

	<path style="fill:#026D69;" d="M166.77,435.29c0,2.77-1.21,3.84-4.3,3.84h-4.57c-3.03,0-5.17-0.71-6.37-2.1
		c-1.12-1.31-1.49-3.31-1.09-5.96l1.33-8.92h-5.13l-1.22,7.99l0,0c-0.66,4.62,0.23,8.49,2.56,11.18c2.21,2.54,5.63,3.89,9.91,3.89
		h4.57c6.03,0,9.63-3.71,9.63-9.93v-20.15h-5.32V435.29z"/>
	<rect x="156.04" y="412.65" style="fill:#026D69;" width="5.73" height="6.09"/>
	<path style="fill:#026D69;" d="M288.12,428.12c0,1.09-0.23,1.8-0.71,2.18c-0.53,0.43-1.43,0.49-2.76,0.2l-3.61-0.76
		c-1.79-0.4-2.1-1.01-2.1-2.23v-11.15h-5.33l0,11.17l0.05,0.9c-0.2,0.6-0.77,1.15-3.18,1.15h-1.68c-3.06,0-4.25-1.08-4.25-3.84
		v-8.36h-5.33v8.36c0,0.8,0.08,1.66,0.22,2.5c-1.07,0.86-2.81,1.35-4.83,1.35h-2.32h-1.25h-0.85c-1.7,0-2.55-0.17-3.02-0.63l0.04-2
		c0-8.41-4.82-13.24-13.24-13.24h-26.82v-0.79c0-2.18,0.65-3.35,2.59-4.68l8.52-5.99l-2.61-4.52l-8.57,6.03
		c-3.08,2.12-4.64,5.2-4.64,9.15v6.22H234c5.47,0,7.91,2.41,7.91,7.81v1.37c0,1-0.16,1.25-1.66,1.25h-40.29h-1.26h-7.89h-1.26h-3.64
		c-1.46,0-2.07-0.32-2.07-2.32v-30.42h-5.33v30.42c0,5.11,2.9,8.41,7.39,8.41h3.64h1.26h7.89h1.26h40.29c2.81,0,4.46-1.19,5.41-2.35
		c1.06,1.58,2.55,2.35,4.55,2.35h0.85h1.25h2.32c2.98,0,5.24-0.96,6.87-2.93c1.68,1.92,4.2,2.93,7.31,2.93h1.68
		c2.2,0,3.98-0.8,5.17-2.32c1.1,1.16,2.51,1.93,4.21,2.31l3.6,0.76c0.88,0.21,1.72,0.31,2.52,0.31c1.09,0,2.17-0.13,3.24-0.44v-14.48c0-2.77,1.21-3.84,4.3-3.84h4.57
		c3.03,0,5.17,0.71,6.37,2.1c1.12,1.31,1.49,3.31,1.09,5.96l-1.33,8.92H430l1.22-7.99l0,0
		c0.66-4.62-0.23-8.49-2.56-11.18c-2.21-2.54-5.63-3.89-9.91-3.89h-4.57c6.03,0,9.63,3.71,9.63,9.93V448h-5.32V435.47z"/>
	<path style="fill:#026D69;" d="M568.77,435.29c0,2.77-1.21,3.84-4.3,3.84h-4.57c-3.03,0-5.17-0.71-6.37-2.1
		c-1.12-1.31-1.49-3.31-1.09-5.96l1.33-8.92h-5.13l-1.22,7.99l0,0c-0.66,4.62,0.23,8.49,2.56,11.18c2.21,2.54,5.63,3.89,9.91,3.89
		h4.57c6.03,0,9.63-3.71,9.63-9.93v-20.15h-5.32V435.29z"/>
	<rect x="558.04" y="412.65" style="fill:#026D69;" width="5.73" height="6.09"/>
	<path style="fill:#026D69;" d="M700.12,428.12c0,1.09-0.23,1.8-0.71,2.18c-0.53,0.43-1.43,0.49-2.76,0.2l-3.61-0.76
		c-1.79-0.4-2.1-1.01-2.1-2.23v-11.15h-5.33l0,11.17l0.05,0.9c-0.2,0.6-0.77,1.15-3.18,1.15h-1.68c-3.06,0-4.25-1.08-4.25-3.84
		v-8.36h-5.33v8.36c0,0.8,0.08,1.66,0.22,2.5c-1.07,0.86-2.81,1.35-4.83,1.35h-2.32h-1.25h-0.85c-1.7,0-2.55-0.17-3.02-0.63l0.04-2
		c0-8.41-4.82-13.24-13.24-13.24h-26.82v-0.79c0-2.18,0.65-3.35,2.59-4.68l8.52-5.99l-2.61-4.52l-8.57,6.03
		c-3.08,2.12-4.64,5.2-4.64,9.15v6.22H646c5.47,0,7.91,2.41,7.91,7.81v1.37c0,1-0.16,1.25-1.66,1.25h-40.29h-1.26h-7.89h-1.26h-3.64
		c-1.46,0-2.07-0.32-2.07-2.32v-30.42h-5.33v30.42c0,5.11,2.9,8.41,7.39,8.41h3.64h1.26h7.89h1.26h40.29c2.81,0,4.46-1.19,5.41-2.35
		c1.06,1.58,2.55,2.35,4.55,2.35h0.85h1.25h2.32c2.98,0,5.24-0.96,6.87-2.93c1.68,1.92,4.2,2.93,7.31,2.93h1.68
		c2.2,0,3.98-0.8,5.17-2.32c1.1,1.16,2.51,1.93,4.21,2.31l3.6,0.76c0.88,0.21,1.72,0.31,2.52,0.31c1.09,0,2.17-0.13,3.24-0.44v-14.48c0-2.77,1.21-3.84,4.3-3.84h4.57
		c3.03,0,5.17,0.71,6.37,2.1c1.12,1.31,1.49,3.31,1.09,5.96l-1.33,8.92H840l1.22-7.99l0,0
		c0.66-4.62-0.23-8.49-2.56-11.18c-2.21-2.54-5.63-3.89-9.91-3.89h-4.57c6.03,0,9.63,3.71,9.63,9.93V448h-5.32V435.47z"/>
	
	
</g>
</svg>
