<?xml version="1.0" encoding="utf-8"?>
<!-- Generator: Adobe Illustrator 26.0.1, SVG Export Plug-In . SVG Version: 6.00 Build 0)  -->
<svg version="1.1" id="Layer_1" xmlns="http://www.w3.org/2000/svg" xmlns:xlink="http://www.w3.org/1999/xlink" x="0px" y="0px"
	 viewBox="0 0 1056 731" style="enable-background:new 0 0 1056 731;" xml:space="preserve">
<g>
	<path style="fill:#026D69;" d="M166.77,435.29c0,2.77-1.21,3.84-4.3,3.84h-4.57c-3.03,0-5.17-0.71-6.37-2.1
		c-1.12-1.31-1.49-3.31-1.09-5.96l1.33-8.92h-5.13l-1.22,7.99l0,0c-0.66,4.62,0.23,8.49,2.56,11.18c2.21,2.54,5.63,3.89,9.91,3.89
		h4.57c6.03,0,9.63-3.71,9.63-9.93v-20.15h-5.32V435.29z"/>
	<rect x="156.04" y="412.65" style="fill:#026D69;" width="5.73" height="6.09"/>
	<path style="fill:#026D69;" d="M288.12,428.12c0,1.09-0.23,1.8-0.71,2.18c-0.53,0.43-1.43,0.49-2.76,0.2l-3.61-0.76
		c-1.79-0.4-2.1-1.01-2.1-2.23v-11.15h-5.33l0,11.17l0.05,0.9c-0.2,0.6-0.77,1.15-3.18,1.15h-1.68c-3.06,0-4.25-1.08-4.25-3.84
		v-8.36h-5.33v8.36c0,0.8,0.08,1.66,0.22,2.5c-1.07,0.86-2.81,1.35-4.83,1.35h-2.32h-1.25h-0.85c-1.7,0-2.55-0.17-3.02-0.63l0.04-2
		c0-8.41-4.82-13.24-13.24-13.24h-26.82v-0.79c0-2.18,0.65-3.35,2.59-4.68l8.52-5.99l-2.61-4.52l-8.57,6.03
		c-3.08,2.12-4.64,5.2-4.64,9.15v6.22H234c5.47,0,7.91,2.41,7.91,7.81v1.37c0,1-0.16,1.25-1.66,1.25h-40.29h-1.26h-7.89h-1.26h-3.64
		c-1.46,0-2.07-0.32-2.07-2.32v-30.42h-5.33v30.42c0,5.11,2.9,8.41,7.39,8.41h3.64h1.26h7.89h1.26h40.29c2.81,0,4.46-1.19,5.41-2.35
		c1.06,1.58,2.55,2.35,4.55,2.35h0.85h1.25h2.32c2.98,0,5.24-0.96,6.87-2.93c1.68,1.92,4.2,2.93,7.31,2.93h1.68
		c2.2,0,3.98-0.8,5.17-2.32c1.1,1.16,2.51,1.93,4.21,2.31l3.6,0.76c0.88,0.21,1.72,0.31,2.52,0.31c1.75,0,3.28-0.49,4.51-1.47
		c1.89-1.5,2.94-4.04,2.94-7.14v-14.51h-5.33V428.12z"/>
	<path style="fill:#026D69;" d="M304.58,443.98c0-1.92,0.64-2.67,2.27-2.67h3.07v-3.09h-3.07c-3.2,0-5.1,2.15-5.1,5.76v0.19h-1.48
		v3.09h10.26v-3.09h-5.95V443.98z"/>
	<path style="fill:#026D69;" d="M318.32,427.67c0,0.95-0.28,1.91-2.32,1.91h-18.68v6.09H316c4.57,0,7.64-3.21,7.64-8v-31.08h-5.32
		V427.67z"/>
	<polygon style="fill:#026D69;" points="311.33,427.13 306.22,402.91 301.02,404.21 305.78,427.13 	"/>
	<rect x="331.23" y="396.84" style="fill:#026D69;" width="5.33" height="38.88"/>
	<path style="fill:#026D69;" d="M352.5,412.75h-0.3c-6.15,0-10.29,4.32-10.29,10.74v1.42c0,6.46,4.26,10.8,10.59,10.8h4.96v0.59
		c0,1.79-0.45,2.36-3.62,3.04l-10.53,2.37l1.18,5.31l10.53-2.37c3.34-0.68,7.77-2.29,7.77-8.35V423.5
		C362.79,417.07,358.66,412.75,352.5,412.75 M347.24,423.5c0-3.23,1.76-5.01,4.96-5.01h0.3c3.25,0,4.96,1.73,4.96,5.01v6.49h-4.96
		c-3.35,0-5.27-1.85-5.27-5.06V423.5z"/>
	<path style="fill:#026D69;" d="M417.05,429.58h-25.2c-4.7,0-6.79-1.97-6.79-6.39v-7.44h-5.33v7.44c0,7.81,4.53,12.48,12.12,12.48
		h30.52V412.6h-5.32V429.58z"/>
	<rect x="402.97" y="408.99" style="fill:#026D69;" width="5.38" height="6.09"/>
	<rect x="395.85" y="408.99" style="fill:#026D69;" width="5.43" height="6.09"/>
	<rect x="448.32" y="440.25" style="fill:#026D69;" width="5.38" height="6.09"/>
	<rect x="441.2" y="440.25" style="fill:#026D69;" width="5.43" height="6.09"/>
	<path style="fill:#026D69;" d="M450.9,428.28V412.6h-5.33v15.68c0,1.01-0.22,1.3-1.71,1.3h-2.88h-1.26h-3.64
		c-1.46,0-2.07-0.32-2.07-2.32v-30.42h-5.32v30.42c0,5.11,2.9,8.41,7.39,8.41h3.64h1.26h2.88
		C449.05,435.67,450.9,431.85,450.9,428.28"/>
	<rect x="502.21" y="440.51" style="fill:#026D69;" width="5.73" height="6.09"/>
	<path style="fill:#026D69;" d="M520.66,427.67c0,0.99-0.29,1.91-2.37,1.91h-2.17h-1.26h-2.63c-3.06,0-4.25-1.08-4.25-3.84v-8.36
		h-5.32v8.36c0,0.87,0.06,1.61,0.17,2.23c-0.93,1.04-2.6,1.61-4.73,1.61h-2.32h-1.26h-0.39c-2.57,0-3.87-0.42-4.45-1.45v-31.54
		h-5.32v31.08c0,0.99-0.29,1.91-2.37,1.91h-2.12h-1.31h-0.34c-2.17,0-3.45-0.32-4.14-1.02c0.07-0.97-0.02-2.06-0.28-3.26l-1.37-5.9
		c-1.2-5.14-4.37-7.86-9.16-7.86h-5.87v6.09h5.87c2.42,0,3.56,0.89,4.06,3.17l1.37,5.9c0.24,0.97,0.18,1.65-0.16,2.09
		c-0.42,0.54-1.33,0.8-2.78,0.8h-11.25v6.09h11.25c2.95,0,5.33-1.05,6.78-2.98c1.23,1.98,3.14,2.98,5.67,2.98h0.34h1.31h2.12
		c2.73,0,5.02-1.16,6.38-3.21c1.2,2.11,3.18,3.21,5.77,3.21h0.39h1.26h2.32c2.96,0,5.24-0.92,6.96-2.8c1.68,1.83,4.14,2.8,7.17,2.8
		h2.63h1.26h2.17c4.6,0,7.7-3.21,7.7-8v-31.08h-5.32V427.67z"/>
	<rect x="533.52" y="396.84" style="fill:#026D69;" width="5.33" height="38.88"/>
	<rect x="568.55" y="401.11" style="fill:#026D69;" width="5.38" height="6.09"/>
	<rect x="561.43" y="401.11" style="fill:#026D69;" width="5.43" height="6.09"/>
	<path style="fill:#026D69;" d="M578.95,423.59l-0.4-2.34l0-0.01c-1.19-5.89-4.31-8.64-9.82-8.64h-8.65l-2.4,12.35
		c-0.61,3.04-0.09,5.67,1.49,7.61c1.59,1.94,4.19,3.01,7.31,3.01h3.15c3.11,0,5.77-1.14,7.49-3.2
		C578.95,430.16,579.6,427.04,578.95,423.59 M572.99,428.85c-0.71,0.86-1.83,1.29-3.36,1.29h-3.15c-1.58,0-2.63-0.34-3.2-1.03
		c-0.55-0.66-0.68-1.68-0.4-3.09l1.57-7.98h4.27c2.89,0,3.86,0.92,4.51,4.27l0.41,2.24C574,426.4,573.78,427.89,572.99,428.85"/>
	<path style="fill:#026D69;" d="M586.19,435.8c0,2.27-0.82,3.47-2.91,4.28l-4.67,1.82l2,5.07l4.57-1.82
		c4.21-1.63,6.34-4.77,6.34-9.35v-21.67h-5.33V435.8z"/>
	<rect x="597.53" y="396.84" style="fill:#026D69;" width="5.33" height="38.88"/>
	<rect x="611.36" y="402.28" style="fill:#026D69;" width="5.73" height="6.09"/>
	<path style="fill:#026D69;" d="M611.97,435.8c0,2.27-0.82,3.47-2.91,4.28l-4.67,1.82l2.01,5.07l4.57-1.82
		c4.21-1.63,6.34-4.77,6.34-9.35v-21.67h-5.33V435.8z"/>
	<path style="fill:#026D69;" d="M631.86,412.75h-0.3c-6.15,0-10.29,4.32-10.29,10.74v1.42c0,6.46,4.26,10.8,10.59,10.8h4.96v0.59
		c0,1.79-0.45,2.36-3.62,3.04l-10.53,2.37l1.18,5.31l10.53-2.37c3.34-0.68,7.77-2.29,7.77-8.35V423.5
		C642.15,417.07,638.02,412.75,631.86,412.75 M626.6,423.5c0-3.23,1.76-5.01,4.96-5.01h0.3c3.25,0,4.96,1.73,4.96,5.01v6.49h-4.96
		c-3.35,0-5.27-1.85-5.27-5.06V423.5z"/>
	<path style="fill:#86B940;" d="M812.44,525.34c-64.4,0-116.72-52.47-116.72-116.72l0.95-16.08h18.27v-24.52h2.04v-3.86h8.73
		l2.55,4.22h4.58v31.15h3.64v4.44h1.38v-25.03h14.63v6.4h4.8v12.08h8.22v-11.72h11.06l3.86,5.02v13.32h22.56v3.35H777V391.8
		l-2.18-2.84h-5.9v15.72h-4.58v-4H754V388.6h-4.8v-6.48h-7.93v25.11h-8.08v-4.44h-3.64v-31.15h-3.06l-2.55-4.22h-3.49v3.86h-2.04
		v24.6h-18.41l-0.65,12.88c0,62.36,50.87,113.23,113.38,113.23c62.37,0,113.23-50.58,113.38-112.79h-11.86v-19.87h-6.99v-10.26
		h-7.93v-4.44h-9.82v3.06l-2.04,2.18v18.41h-9.97v-13.61l-2.55-2.84h-5.24v-4.66h-6.11v30.13h-10.04V396.1h-9.02v11.21h-23.87v-3.35
		h20.45v-11.21h15.72v11.21h3.35v-30.13h13.03v4.66h3.64l4.29,4.8V395h3.06v-16.45l2.04-2.18v-5.09h16.52v4.44h7.93v10.26h6.84
		v19.87h11.57v2.98C929.24,473.09,876.77,525.34,812.44,525.34"/>
	<path style="fill:#86B940;" d="M768.27,478.47c-0.95,0-1.89,0.22-2.84,0.65c-2.4,1.75-3.2,5.1-1.75,7.64
		c0.65,1.24,1.89,2.04,3.64,2.55c0.58,0,1.02,0.15,1.75,0.15c7.13,0,13.46-4.44,18.7-8.59l0.95-0.8l0.65,1.02
		c2.4,4,6.62,6.98,11.06,7.79h0.95c3.06,0,6.62-1.46,7.28-4.8c0.44-2.4-1.02-5.09-3.35-6.19c-1.38-0.58-3.2-0.58-5.68,0.58
		c-0.58,0.22-0.8,0.95-1.02,2.04c-0.22,1.02-0.66,2.84-2.4,2.84c-1.38,0-3.2-1.02-4-2.4c-0.44-0.8-0.44-1.6,0-2.26
		c3.64-5.46,8.44-9.46,13.03-13.03c2.18-1.75,4.29-3.49,6.33-5.39l0.8-0.65l0.8,0.65c2.04,1.89,4.22,3.64,6.33,5.24
		c4.8,3.86,9.97,7.79,13.02,13.68c0.15,0.22,0.44,0.8,0.15,1.38c-0.44,1.02-2.4,2.84-3.86,2.98c-0.95,0.15-1.46-0.14-1.75-0.44
		c-0.58-0.58-0.58-1.38-0.58-1.89c0-0.44,0-0.95-0.14-1.24c-0.66-1.38-2.18-1.75-3.64-2.18c-2.69-0.65-5.82,1.45-6.48,4.44
		c-0.22,1.38,0,2.69,0.65,3.86c1.6,2.04,3.64,3.06,6.04,3.06c4.8,0,10.04-4,12.52-7.93l0.66-1.02l0.95,0.8
		c4.8,3.86,11.21,8.22,17.47,8.22c1.75,0,3.35-0.22,5.02-0.95c1.02-0.58,2.04-1.6,2.4-2.98c0.44-1.46,0.15-2.98-0.66-4.22
		c-1.02-1.6-2.84-2.4-4.66-2.4c-1.89,0-3.78,0.95-4.66,2.4l-0.58,0.8l-0.8-0.22c-3.2-1.24-7.28-3.06-9.24-6.62
		c-0.8-1.24-0.44-2.98,0.22-4.22c0.65-1.24,1.38-1.45,1.89-1.45c0.22,0,0.58,0,0.65,0.14c1.6,0.95,3.2,1.45,4.66,1.45
		c2.69,0,4.8-1.6,5.46-4.29c0.22-1.38,0-2.69-0.8-4c-0.8-1.24-2.18-2.18-3.64-2.55h-0.95c-2.55,0-5.1,1.24-6.7,3.2
		c-1.02,1.24-1.46,2.84-2.04,4.44c-0.44,1.46-0.95,2.84-1.75,4.22l-0.65,1.02l-20.16-18.7l0.8-0.8
		c21.76-20.96,51.08-28.38,75.03-30.56c-3.06-0.22-6.18-0.44-9.24-0.44c-26.49,0-51.45,9.17-70.37,25.69l-0.66,0.58l-0.65-0.58
		c-9.82-7.28-23.14-16.3-38.42-20.74c-14.26-4.22-28.53-5.82-42.21-4.58c23.94,2.18,53.27,9.53,75.17,30.64l0.8,0.8l-20.16,18.7
		l-0.66-1.02c-0.95-1.38-1.38-2.84-1.75-4.22c-0.58-1.6-0.95-3.06-2.04-4.44c-1.46-1.46-2.98-2.26-5.09-3.06
		c-3.2-0.65-6.19,1.24-6.84,4.44c-0.44,2.4,1.02,5.02,3.35,6.19c0.22,0.15,0.8,0.15,1.38,0.15c1.45,0,2.98-0.65,4.44-1.24l0.66-0.22
		c0.22-0.15,0.44-0.15,0.65-0.15c0.95,0,1.75,0.66,2.26,1.6c0.66,1.24,0.95,2.84,0.15,4c-2.04,3.49-6.04,5.24-9.24,6.62l-0.8,0.22
		l-0.58-0.65C772.05,479.49,770.16,478.47,768.27,478.47 M769.07,491.72c-0.66,0-1.38,0-2.18-0.15c-2.69-0.65-4.29-1.89-5.24-3.64
		c-2.04-3.5-0.95-8.08,2.55-10.63c3.49-2.04,7.64-1.02,10.26,1.75c2.69-1.02,5.89-2.69,7.42-5.39c0.15-0.14,0.15-0.66,0-1.24
		c-0.14-0.58-0.44-0.95-0.58-1.02l-0.58,0.22c-1.6,0.65-3.35,1.38-5.38,1.38c-0.8,0-1.46-0.14-2.18-0.44
		c-3.2-1.6-5.09-5.24-4.66-8.59c0.8-3.86,3.86-6.48,7.64-6.48c0.66,0,1.38,0.15,1.89,0.22h0.15c2.4,0.95,4.22,1.89,6.04,3.79
		c1.38,1.6,2.04,3.49,2.55,5.24c0.22,0.8,0.58,1.75,0.95,2.4l16.45-15.21c-25.03-23.36-59.53-29.18-84.34-29.84l-10.26-0.22
		l9.9-1.89c17.46-3.35,36.02-2.4,54.65,3.06c15.21,4.44,28.53,13.32,38.42,20.52c19.28-16.52,44.39-25.69,71.17-25.69
		c7.13,0,14.26,0.65,21.1,2.04l10.26,1.89l-10.48,0.22c-24.74,0.65-59.31,6.48-84.34,29.83l16.45,15.21c0.44-0.8,0.58-1.6,0.95-2.4
		c0.58-1.75,1.02-3.64,2.4-5.24c2.26-2.84,6.19-4.44,9.82-3.86c2.04,0.58,3.86,1.75,5.02,3.35c1.24,1.75,1.6,3.86,1.24,5.82
		c-0.95,3.64-3.86,5.9-7.64,5.9c-1.75,0-3.64-0.58-5.24-1.46c-0.22,0.58-0.58,1.6-0.22,2.04c1.46,2.69,4.66,4.29,7.42,5.39
		c1.46-1.75,3.64-2.69,6.04-2.69c2.69,0,5.09,1.38,6.62,3.49c1.24,1.75,1.6,3.86,0.95,6.04c-0.58,2.04-1.89,3.64-3.64,4.29
		c-1.89,0.8-3.79,1.24-5.82,1.24c-6.62,0-13.02-4.22-17.9-7.93c-3.06,4-8.44,7.93-13.68,7.93c-3.06,0-5.9-1.38-7.93-4
		c-1.24-1.75-1.6-3.86-1.02-5.82c0.95-3.64,4.22-6.33,7.49-6.33c0.58,0,1.02,0.15,1.6,0.22c1.89,0.44,4,0.95,5.09,3.2
		c0.58,0.66,0.44,1.75,0.44,2.4c0.58-0.15,1.38-0.8,1.75-1.38c-2.98-5.39-7.5-8.88-12.37-12.81c-1.89-1.46-3.86-2.98-5.68-4.66
		c-1.89,1.75-3.78,3.2-5.68,4.8c-4.66,3.78-9.17,7.42-12.52,12.66c0.15,0.44,1.38,1.24,2.04,1.38c0.15-0.22,0.22-0.8,0.44-1.02
		c0.22-1.24,0.65-2.98,2.4-3.64c2.98-1.24,5.24-1.38,7.42-0.44c3.2,1.6,5.09,5.24,4.58,8.59c-1.02,5.09-6.48,7.13-10.84,6.62
		c-4.66-0.8-9.17-3.78-12.01-7.79C782.82,487.57,776.49,491.72,769.07,491.72"/>
	<path style="fill:#86B940;" d="M855.01,341.15l2.84,2.18l-2.04-2.84c-13.03-18.7-27.73-19.28-32.38-18.85
		c0.94-0.95,2.55-2.55,4.8-3.35l1.6-0.65l-1.6-0.44c-3.49-0.95-8.44-1.75-12.66,1.75c-0.66-3.49-2.26-7.42-3.2-8.08
		c-0.22-0.15-0.58-0.22-0.65-0.15c-1.02,0.22-3.06,3.2-4,8.22c-2.98-2.4-8.08-3.49-12.22-1.38l-1.24,0.66l1.38,0.44
		c0,0,2.84,0.95,4.44,3.35c-19.07,0.44-25.98,9.82-31.58,17.32c-0.44,0.58-0.8,1.02-1.24,1.6l0.8,0.8
		c7.79-7.28,19.87-9.68,25.69-8.22c-6.99,2.84-20.3,10.84-24.89,33.91l-0.58,2.98l1.6-2.55c7.64-12.08,15.07-19.36,23.94-23.36
		c-5.82,8.73-13.61,23.65-10.48,37.11l0.44,2.4l0.58-2.55c2.98-13.32,10.77-24.3,15.86-29.33c-4.22,14.85-2.55,29.04-0.44,34.71
		l0.95,2.55l0.15-2.69c0.8-12.23,4.22-25.33,6.69-31.58l1.75,12.08l-1.02,0.22l0.8,16.67h-1.31l1.38,17.1l-1.46,0.44v0.58
		c0,0.15,1.02,10.77,1.46,16.81c-2.04,1.02-4,3.06-4.66,3.78v1.02h14.92v-1.02v-0.14c-1.46-1.89-3.79-3.06-4.59-3.64l1.6-17.9
		l-1.6,0.14l1.02-17.61l-1.24,0.15l0.8-16.67h-1.38c0.22-1.45,0.8-5.46,1.46-12.22c3.2,5.46,6.04,16.95,7.5,31.15l0.44,4.29
		l0.65-4.22c2.84-17.32,0.15-30.64-1.02-35.22c4.44,4.29,13.32,19.5,16.3,30.35l0.8,3.2l0.22-3.35
		c1.02-14.48-2.26-25.54-11.43-37.55c3.78,1.02,8.3,4.22,13.17,9.02c4.58,4.44,8.88,10.26,11.28,14.63l1.38,2.55l-0.22-2.98
		c-1.75-17.75-15.06-30.27-24.6-33.98C838.56,331.62,851.15,338.31,855.01,341.15"/>
	<path style="fill:#80BC00;" d="M149.53,472.22h0.33l-0.84,16.08l-3.81-0.15l0.99-18.97h3.33V472.22z M163.19,472.22h-0.38l-4.8,16
		h-3.76l-4.8-16h-0.36v-3.05h2.64l4.8,16h-0.81l4.8-16h2.67V472.22z M163.24,488.3l-0.86-16.08h0.38v-3.05h3.28l1.02,18.97
		L163.24,488.3z"/>
	<path style="fill:#80BC00;" d="M170.94,471.17c-0.42-0.36-0.63-0.82-0.63-1.36v-0.08c0-0.54,0.21-0.99,0.63-1.36
		c0.42-0.36,0.94-0.55,1.55-0.55c0.61,0,1.13,0.18,1.55,0.55c0.42,0.36,0.63,0.82,0.63,1.36v0.08c0,0.54-0.21,0.99-0.63,1.36
		c-0.42,0.37-0.94,0.55-1.55,0.55C171.88,471.71,171.36,471.53,170.94,471.17 M170.59,474h3.81v14.22h-3.81V474z"/>
	<path style="fill:#80BC00;" d="M177.82,474h3.81v14.22h-3.81V474z M181.04,478.17c0.33-1.15,0.91-2.15,1.74-3.01
		c0.83-0.86,1.95-1.28,3.35-1.28h0.08l-1.02,3.3h-0.08c-0.91,0-1.64,0.22-2.17,0.66c-0.53,0.44-0.9,0.98-1.09,1.61
		c-0.19,0.64-0.29,1.28-0.29,1.94h-1.02C180.54,480.39,180.71,479.32,181.04,478.17 M186.18,473.87h0.08c0.93,0,1.76,0.25,2.5,0.75
		c0.74,0.5,1.32,1.24,1.75,2.22c0.43,0.98,0.65,2.16,0.65,3.53v7.85h-3.81v-7.85c0-1.03-0.17-1.82-0.51-2.37
		c-0.34-0.55-0.87-0.83-1.6-0.83h-0.08L186.18,473.87z"/>
	<path style="fill:#80BC00;" d="M194.82,471.17c-0.42-0.36-0.63-0.82-0.63-1.36v-0.08c0-0.54,0.21-0.99,0.63-1.36
		c0.42-0.36,0.94-0.55,1.55-0.55c0.61,0,1.13,0.18,1.55,0.55c0.42,0.36,0.63,0.82,0.63,1.36v0.08c0,0.54-0.21,0.99-0.63,1.36
		c-0.42,0.37-0.94,0.55-1.55,0.55C195.76,471.71,195.24,471.53,194.82,471.17 M194.46,474h3.81v14.22h-3.81V474z"/>
	<path style="fill:#80BC00;" d="M207.16,488.35h-0.25c-1.56,0-2.89-0.4-3.99-1.21c-1.1-0.8-1.73-2-1.88-3.59h3.07
		c0.12,0.71,0.41,1.22,0.86,1.54c0.46,0.31,1.1,0.47,1.93,0.47h0.25V488.35z M206.88,476.67h-0.03c-0.59,0-1.08,0.11-1.46,0.33
		c-0.38,0.22-0.64,0.48-0.79,0.79c-0.14,0.3-0.16,0.58-0.06,0.84c0.13,0.32,0.42,0.55,0.85,0.67c0.43,0.13,1.07,0.25,1.92,0.37
		c0.91,0.14,1.66,0.28,2.25,0.42c0.58,0.14,1.14,0.39,1.68,0.74c0.53,0.35,0.94,0.83,1.23,1.46c0.44,0.95,0.5,1.89,0.18,2.83
		c-0.32,0.94-0.96,1.71-1.93,2.32c-0.97,0.61-2.13,0.92-3.48,0.92h-0.08v-2.79h0.08c0.57,0,1.06-0.11,1.45-0.34
		c0.39-0.23,0.65-0.51,0.79-0.84c0.13-0.33,0.13-0.64,0-0.93c-0.17-0.37-0.49-0.63-0.97-0.79c-0.47-0.15-1.18-0.3-2.11-0.43
		c-0.86-0.12-1.58-0.24-2.15-0.38c-0.57-0.14-1.1-0.38-1.61-0.72c-0.51-0.35-0.89-0.83-1.14-1.43c-0.37-0.93-0.38-1.85-0.03-2.76
		c0.36-0.91,1.01-1.64,1.97-2.21c0.96-0.57,2.1-0.85,3.42-0.85h0.03V476.67z M208.58,477.07c-0.44-0.27-1-0.41-1.68-0.41h-0.05
		v-2.79h0.05c0.91,0,1.78,0.17,2.59,0.49c0.81,0.33,1.49,0.83,2.03,1.49c0.54,0.66,0.86,1.46,0.96,2.41h-3.07
		C209.3,477.74,209.02,477.34,208.58,477.07"/>
	<path style="fill:#80BC00;" d="M223.85,477.05h-9.3v-2.79h9.3V477.05z M223.85,488.22h-2.18c-1.47,0-2.65-0.37-3.52-1.12
		c-0.87-0.74-1.31-1.85-1.31-3.33v-14.6h3.81v14.6c0,0.37,0.02,0.63,0.05,0.77c0.03,0.14,0.12,0.24,0.25,0.29
		c0.14,0.05,0.37,0.08,0.71,0.08h2.18V488.22z"/>
	<path style="fill:#80BC00;" d="M226.52,474h3.81v14.22h-3.81V474z M231.31,475.55c1.09-1.17,2.53-1.75,4.3-1.75v3.56
		c-1.78,0-3.1,0.32-3.96,0.95c-0.86,0.63-1.33,1.56-1.4,2.78l-0.76-0.15C229.61,478.51,230.21,476.72,231.31,475.55"/>
	<path style="fill:#80BC00;" d="M236.73,474h4.06l5.92,13.59l-2.82,2.11L236.73,474z M253.11,474l-8.13,20.17h-4.01L249.1,474
		H253.11z"/>
	<path style="fill:#80BC00;" d="M273.71,484.78c-0.66,1.11-1.55,1.98-2.68,2.62c-1.13,0.64-2.36,0.95-3.7,0.95
		c-1.35,0-2.59-0.32-3.71-0.95c-1.12-0.63-2.01-1.5-2.67-2.6c-0.66-1.1-0.99-2.33-0.99-3.68c0-1.35,0.33-2.58,0.99-3.68
		c0.66-1.1,1.55-1.97,2.67-2.6c1.12-0.63,2.35-0.95,3.71-0.95c1.34,0,2.57,0.32,3.7,0.95c1.13,0.64,2.02,1.51,2.68,2.62
		c0.66,1.11,0.99,2.33,0.99,3.67C274.7,482.45,274.37,483.67,273.71,484.78 M270.4,479.08c-0.33-0.59-0.77-1.06-1.31-1.4
		c-0.54-0.34-1.13-0.51-1.75-0.51c-0.63,0-1.21,0.17-1.76,0.5c-0.55,0.33-0.99,0.8-1.31,1.4c-0.32,0.6-0.48,1.28-0.48,2.04
		c0,0.76,0.16,1.44,0.48,2.05c0.32,0.6,0.76,1.07,1.31,1.4c0.55,0.33,1.14,0.5,1.76,0.5c0.63,0,1.21-0.17,1.75-0.51
		c0.54-0.34,0.98-0.8,1.31-1.4c0.33-0.59,0.49-1.27,0.49-2.03C270.89,480.35,270.73,479.67,270.4,479.08"/>
	<path style="fill:#80BC00;" d="M285.04,477.05h-9.27v-2.79h9.27V477.05z M277.95,488.22v-14.63c0-1.51,0.49-2.71,1.47-3.61
		c0.98-0.9,2.3-1.35,3.94-1.35h0.08v3.05h-0.08c-0.56,0-0.96,0.14-1.22,0.43c-0.25,0.29-0.38,0.78-0.38,1.47v14.63H277.95z
		 M283.41,468.64h0.02c0.61,0,1.14,0.07,1.6,0.2v3.05c-0.1-0.03-0.19-0.05-0.25-0.05c-0.47-0.1-0.92-0.15-1.35-0.15h-0.02V468.64z"
		/>
	<path style="fill:#80BC00;" d="M297.26,472.22h0.33l-0.84,16.08l-3.81-0.15l0.99-18.97h3.33V472.22z M310.92,472.22h-0.38l-4.8,16
		h-3.76l-4.8-16h-0.36v-3.05h2.64l4.8,16h-0.81l4.8-16h2.67V472.22z M310.97,488.3l-0.86-16.08h0.38v-3.05h3.28l1.02,18.97
		L310.97,488.3z"/>
	<path style="fill:#80BC00;" d="M323.04,488.35h-0.08c-0.93,0-1.76-0.25-2.5-0.75c-0.74-0.5-1.32-1.24-1.75-2.22
		s-0.65-2.16-0.65-3.53V474h3.81v7.85c0,1.03,0.17,1.82,0.51,2.37c0.34,0.55,0.87,0.83,1.6,0.83h0.08L323.04,488.35z M328.18,484.06
		c-0.33,1.15-0.91,2.16-1.74,3.01c-0.83,0.86-1.95,1.28-3.35,1.28h-0.08l1.02-3.3h0.08c0.91,0,1.64-0.22,2.17-0.66
		c0.53-0.44,0.9-0.98,1.09-1.61c0.2-0.63,0.29-1.28,0.29-1.94h1.02C328.68,481.83,328.51,482.91,328.18,484.06 M331.4,488.22h-3.81
		V474h3.81V488.22z"/>
	<path style="fill:#80BC00;" d="M334.7,474h3.81v14.22h-3.81V474z M337.91,478.17c0.33-1.15,0.91-2.15,1.74-3.01
		c0.83-0.86,1.95-1.28,3.35-1.28h0.08l-1.02,3.3h-0.08c-0.91,0-1.64,0.22-2.17,0.66c-0.53,0.44-0.9,0.98-1.09,1.61
		c-0.19,0.64-0.29,1.28-0.29,1.94h-1.02C337.41,480.39,337.58,479.32,337.91,478.17 M343.05,473.87h0.08c0.93,0,1.76,0.25,2.5,0.75
		c0.74,0.5,1.32,1.24,1.75,2.22c0.43,0.98,0.65,2.16,0.65,3.53v7.85h-3.81v-7.85c0-1.03-0.17-1.82-0.51-2.37
		c-0.34-0.55-0.87-0.83-1.6-0.83h-0.08L343.05,473.87z"/>
	<path style="fill:#80BC00;" d="M351.69,471.17c-0.42-0.36-0.63-0.82-0.63-1.36v-0.08c0-0.54,0.21-0.99,0.63-1.36
		c0.42-0.36,0.94-0.55,1.55-0.55c0.61,0,1.13,0.18,1.55,0.55c0.42,0.36,0.64,0.82,0.64,1.36v0.08c0,0.54-0.21,0.99-0.64,1.36
		c-0.42,0.37-0.94,0.55-1.55,0.55C352.63,471.71,352.11,471.53,351.69,471.17 M351.33,474h3.81v14.22h-3.81V474z"/>
	<path style="fill:#80BC00;" d="M370.02,485.86c-0.65,0.83-1.44,1.45-2.38,1.87c-0.93,0.41-1.86,0.62-2.79,0.62h-0.33
		c-1.3,0-2.45-0.27-3.44-0.81s-1.74-1.24-2.25-2.11c-0.69-1.15-1.07-2.44-1.13-3.87c-0.06-1.43,0.15-2.72,0.62-3.87
		c0.44-1.12,1.2-2.03,2.27-2.74c1.07-0.71,2.39-1.07,3.95-1.07h0.31c0.93,0,1.86,0.21,2.79,0.62c0.93,0.42,1.72,1.04,2.38,1.87
		c0.65,0.83,1.04,1.84,1.16,3.02h-3.84c-0.14-0.76-0.45-1.32-0.95-1.68c-0.5-0.35-1.01-0.53-1.54-0.53h-0.31
		c-0.73,0-1.3,0.14-1.71,0.41c-0.42,0.27-0.75,0.73-1,1.37c-0.25,0.64-0.36,1.46-0.32,2.45c0.04,0.99,0.23,1.76,0.57,2.3
		c0.29,0.49,0.62,0.84,0.99,1.04c0.37,0.2,0.86,0.31,1.45,0.31h0.33c0.52,0,1.04-0.18,1.54-0.53c0.5-0.36,0.82-0.92,0.95-1.68h3.84
		C371.05,484.03,370.67,485.03,370.02,485.86"/>
	<path style="fill:#80BC00;" d="M374.2,471.17c-0.42-0.36-0.63-0.82-0.63-1.36v-0.08c0-0.54,0.21-0.99,0.63-1.36
		c0.42-0.36,0.94-0.55,1.55-0.55c0.61,0,1.13,0.18,1.55,0.55c0.42,0.36,0.64,0.82,0.64,1.36v0.08c0,0.54-0.21,0.99-0.64,1.36
		c-0.42,0.37-0.94,0.55-1.55,0.55C375.14,471.71,374.62,471.53,374.2,471.17 M373.84,474h3.81v14.22h-3.81V474z"/>
	<path style="fill:#80BC00;" d="M381.1,474h3.81v20.07h-3.81V474z M387.96,485.3h0.08l0.76,3.05h-0.08c-1.63,0-2.84-0.58-3.65-1.73
		c-0.8-1.15-1.28-2.79-1.43-4.9l1.17-0.25c0.03,1.18,0.3,2.12,0.81,2.81C386.13,484.96,386.91,485.3,387.96,485.3 M388.88,473.87
		h0.08l-0.76,3.05h-0.08c-1.05,0-1.85,0.3-2.41,0.9c-0.56,0.6-0.86,1.38-0.89,2.35l-1.07-0.2c0.12-1.93,0.61-3.43,1.47-4.5
		C386.08,474.41,387.3,473.87,388.88,473.87 M388.93,473.87h0.05c1.05,0,2.03,0.28,2.93,0.85c0.91,0.57,1.63,1.38,2.18,2.45
		c0.55,1.07,0.83,2.31,0.83,3.73c0,1.47-0.25,2.77-0.76,3.9c-0.51,1.13-1.22,2-2.15,2.62c-0.92,0.62-1.98,0.93-3.16,0.93h-0.08
		l-0.76-3.05h0.08c0.96,0,1.71-0.38,2.23-1.14c0.53-0.76,0.79-1.8,0.79-3.12c0-1.27-0.27-2.27-0.8-3.01c-0.53-0.74-1.23-1.1-2.1-1.1
		h-0.05L388.93,473.87z"/>
	<path style="fill:#80BC00;" d="M400.01,487.5c-0.91-0.57-1.63-1.38-2.18-2.45c-0.55-1.07-0.83-2.31-0.83-3.73
		c0-1.47,0.25-2.77,0.76-3.9c0.51-1.13,1.22-2,2.15-2.62c0.92-0.62,1.98-0.93,3.16-0.93h0.08l0.76,3.05h-0.08
		c-0.96,0-1.71,0.38-2.23,1.14c-0.52,0.76-0.79,1.8-0.79,3.12c0,1.27,0.27,2.27,0.8,3.01c0.53,0.74,1.23,1.11,2.1,1.11h0.05
		l-0.76,3.05h-0.05C401.9,488.35,400.92,488.07,400.01,487.5 M403.74,485.3h0.08c1.05,0,1.85-0.3,2.41-0.9
		c0.56-0.6,0.86-1.38,0.89-2.35l1.07,0.2c-0.12,1.93-0.61,3.43-1.47,4.5c-0.86,1.07-2.08,1.6-3.66,1.6h-0.08L403.74,485.3z
		 M403.13,473.87h0.08c1.63,0,2.84,0.58,3.64,1.73c0.8,1.15,1.28,2.79,1.43,4.9l-1.17,0.25c-0.03-1.18-0.3-2.12-0.81-2.81
		c-0.51-0.69-1.29-1.03-2.34-1.03h-0.08L403.13,473.87z M407.01,474h3.81v14.22h-3.81V474z"/>
	<path style="fill:#80BC00;" d="M415.2,486.99c-0.8-0.82-1.21-1.97-1.21-3.44v-15.39h3.81v15.39c0,0.51,0.03,0.85,0.08,1.02
		c0.05,0.17,0.16,0.27,0.33,0.3c0.17,0.03,0.54,0.05,1.12,0.05v3.3C417.38,488.22,416.01,487.81,415.2,486.99"/>
	<path style="fill:#80BC00;" d="M422.1,471.17c-0.42-0.36-0.63-0.82-0.63-1.36v-0.08c0-0.54,0.21-0.99,0.63-1.36
		c0.42-0.36,0.94-0.55,1.55-0.55c0.61,0,1.12,0.18,1.55,0.55c0.42,0.36,0.64,0.82,0.64,1.36v0.08c0,0.54-0.21,0.99-0.64,1.36
		c-0.42,0.37-0.94,0.55-1.55,0.55C423.04,471.71,422.52,471.53,422.1,471.17 M421.74,474h3.81v14.22h-3.81V474z"/>
	<path style="fill:#80BC00;" d="M437.16,477.05h-9.3v-2.79h9.3V477.05z M437.16,488.22h-2.18c-1.47,0-2.65-0.37-3.52-1.12
		c-0.87-0.74-1.31-1.85-1.31-3.33v-14.6h3.81v14.6c0,0.37,0.02,0.63,0.05,0.77c0.03,0.14,0.12,0.24,0.25,0.29
		c0.14,0.05,0.37,0.08,0.71,0.08h2.18V488.22z"/>
	<path style="fill:#80BC00;" d="M440.31,471.17c-0.42-0.36-0.64-0.82-0.64-1.36v-0.08c0-0.54,0.21-0.99,0.64-1.36
		c0.42-0.36,0.94-0.55,1.55-0.55c0.61,0,1.12,0.18,1.55,0.55c0.42,0.36,0.64,0.82,0.64,1.36v0.08c0,0.54-0.21,0.99-0.64,1.36
		c-0.42,0.37-0.94,0.55-1.55,0.55C441.25,471.71,440.74,471.53,440.31,471.17 M439.96,474h3.81v14.22h-3.81V474z"/>
	<path style="fill:#80BC00;" d="M453.57,488.35h-0.1c-1.39,0-2.62-0.28-3.7-0.85c-1.08-0.57-1.91-1.38-2.52-2.45
		c-0.6-1.07-0.9-2.31-0.9-3.73c0-1.27,0.25-2.47,0.76-3.61c0.51-1.14,1.3-2.06,2.36-2.77c1.07-0.71,2.39-1.07,3.96-1.07
		c1.63,0,2.93,0.36,3.92,1.07c0.99,0.71,1.7,1.62,2.12,2.72c0.42,1.1,0.63,2.28,0.63,3.53v1.02h-3.56v-1.02
		c0-1.42-0.24-2.53-0.74-3.33c-0.49-0.8-1.29-1.19-2.39-1.19c-0.78,0-1.43,0.2-1.95,0.61c-0.52,0.41-0.92,0.96-1.18,1.66
		s-0.39,1.49-0.39,2.38c0,0.91,0.14,1.69,0.42,2.32c0.28,0.64,0.69,1.11,1.22,1.43c0.53,0.32,1.17,0.48,1.92,0.48h0.1V488.35z
		 M457.76,482.21h-9.5v-2.03h9.5V482.21z M456.85,487.65c-1.02,0.47-2.02,0.7-3,0.7h-0.3v-2.8h0.3c0.59,0,1.2-0.14,1.83-0.42
		c0.63-0.28,1.08-0.61,1.37-1l2.18,1.78C458.66,486.61,457.86,487.19,456.85,487.65"/>
	<path style="fill:#80BC00;" d="M468.05,488.35h-0.25c-1.56,0-2.89-0.4-3.99-1.21c-1.1-0.8-1.73-2-1.88-3.59H465
		c0.12,0.71,0.41,1.22,0.86,1.54c0.46,0.31,1.1,0.47,1.93,0.47h0.25V488.35z M467.77,476.67h-0.03c-0.59,0-1.08,0.11-1.46,0.33
		c-0.38,0.22-0.64,0.48-0.79,0.79c-0.14,0.3-0.16,0.58-0.06,0.84c0.13,0.32,0.42,0.55,0.85,0.67c0.43,0.13,1.07,0.25,1.92,0.37
		c0.91,0.14,1.66,0.28,2.25,0.42c0.58,0.14,1.14,0.39,1.68,0.74c0.53,0.35,0.94,0.83,1.23,1.46c0.44,0.95,0.5,1.89,0.18,2.83
		c-0.32,0.94-0.96,1.71-1.93,2.32c-0.97,0.61-2.13,0.92-3.48,0.92h-0.08v-2.79h0.08c0.57,0,1.06-0.11,1.45-0.34
		c0.39-0.23,0.65-0.51,0.79-0.84c0.14-0.33,0.14-0.64,0-0.93c-0.17-0.37-0.49-0.63-0.97-0.79c-0.47-0.15-1.18-0.3-2.11-0.43
		c-0.86-0.12-1.58-0.24-2.15-0.38c-0.57-0.14-1.1-0.38-1.61-0.72c-0.51-0.35-0.89-0.83-1.14-1.43c-0.37-0.93-0.38-1.85-0.03-2.76
		c0.36-0.91,1.01-1.64,1.97-2.21c0.96-0.57,2.1-0.85,3.42-0.85h0.03V476.67z M469.47,477.07c-0.44-0.27-1-0.41-1.68-0.41h-0.05
		v-2.79h0.05c0.91,0,1.78,0.17,2.59,0.49c0.81,0.33,1.49,0.83,2.03,1.49c0.54,0.66,0.86,1.46,0.96,2.41h-3.07
		C470.19,477.74,469.91,477.34,469.47,477.07"/>
	<path style="fill:#80BC00;" d="M538.14,469.17h3.81v19.05h-3.81V469.17z M552.21,479.84h-12.17v-3.3h12.17V479.84z M550.23,469.17
		h3.81v19.05h-3.81V469.17z"/>
	<path style="fill:#80BC00;" d="M570.45,484.78c-0.66,1.11-1.55,1.98-2.68,2.62c-1.13,0.64-2.36,0.95-3.7,0.95
		c-1.35,0-2.59-0.32-3.71-0.95c-1.12-0.63-2.01-1.5-2.67-2.6c-0.66-1.1-0.99-2.33-0.99-3.68c0-1.35,0.33-2.58,0.99-3.68
		c0.66-1.1,1.55-1.97,2.67-2.6c1.12-0.63,2.35-0.95,3.71-0.95c1.34,0,2.57,0.32,3.7,0.95c1.13,0.64,2.02,1.51,2.68,2.62
		c0.66,1.11,0.99,2.33,0.99,3.67C571.44,482.45,571.11,483.67,570.45,484.78 M567.13,479.08c-0.33-0.59-0.77-1.06-1.31-1.4
		c-0.54-0.34-1.12-0.51-1.75-0.51c-0.63,0-1.22,0.17-1.77,0.5c-0.55,0.33-0.99,0.8-1.31,1.4c-0.32,0.6-0.48,1.28-0.48,2.04
		c0,0.76,0.16,1.44,0.48,2.05c0.32,0.6,0.76,1.07,1.31,1.4c0.55,0.33,1.14,0.5,1.77,0.5c0.63,0,1.21-0.17,1.75-0.51
		c0.54-0.34,0.98-0.8,1.31-1.4c0.33-0.59,0.5-1.27,0.5-2.03C567.63,480.35,567.46,479.67,567.13,479.08"/>
	<path style="fill:#80BC00;" d="M578.96,488.35h-0.08c-0.93,0-1.76-0.25-2.5-0.75c-0.74-0.5-1.32-1.24-1.75-2.22
		c-0.43-0.98-0.65-2.16-0.65-3.53V474h3.81v7.85c0,1.03,0.17,1.82,0.51,2.37c0.34,0.55,0.87,0.83,1.6,0.83h0.08L578.96,488.35z
		 M584.1,484.06c-0.33,1.15-0.91,2.16-1.74,3.01c-0.83,0.86-1.95,1.28-3.35,1.28h-0.08l1.02-3.3h0.08c0.91,0,1.64-0.22,2.17-0.66
		c0.53-0.44,0.9-0.98,1.09-1.61c0.2-0.63,0.29-1.28,0.29-1.94h1.02C584.59,481.83,584.43,482.91,584.1,484.06 M587.31,488.22h-3.81
		V474h3.81V488.22z"/>
	<path style="fill:#80BC00;" d="M596.08,488.35h-0.25c-1.56,0-2.89-0.4-3.99-1.21c-1.1-0.8-1.73-2-1.88-3.59h3.07
		c0.12,0.71,0.41,1.22,0.86,1.54c0.46,0.31,1.1,0.47,1.93,0.47h0.25V488.35z M595.8,476.67h-0.03c-0.59,0-1.08,0.11-1.46,0.33
		c-0.38,0.22-0.65,0.48-0.79,0.79c-0.14,0.3-0.16,0.58-0.06,0.84c0.14,0.32,0.42,0.55,0.85,0.67c0.43,0.13,1.07,0.25,1.92,0.37
		c0.92,0.14,1.66,0.28,2.25,0.42c0.58,0.14,1.14,0.39,1.68,0.74c0.53,0.35,0.94,0.83,1.23,1.46c0.44,0.95,0.5,1.89,0.18,2.83
		c-0.32,0.94-0.96,1.71-1.93,2.32c-0.97,0.61-2.13,0.92-3.48,0.92h-0.08v-2.79h0.08c0.58,0,1.06-0.11,1.45-0.34
		c0.39-0.23,0.65-0.51,0.79-0.84c0.13-0.33,0.13-0.64,0-0.93c-0.17-0.37-0.49-0.63-0.97-0.79c-0.47-0.15-1.18-0.3-2.11-0.43
		c-0.86-0.12-1.58-0.24-2.15-0.38c-0.57-0.14-1.1-0.38-1.61-0.72c-0.51-0.35-0.89-0.83-1.14-1.43c-0.37-0.93-0.38-1.85-0.03-2.76
		c0.36-0.91,1.01-1.64,1.97-2.21c0.96-0.57,2.09-0.85,3.42-0.85h0.03V476.67z M597.5,477.07c-0.44-0.27-1-0.41-1.68-0.41h-0.05
		v-2.79h0.05c0.91,0,1.78,0.17,2.59,0.49c0.81,0.33,1.49,0.83,2.03,1.49c0.54,0.66,0.86,1.46,0.97,2.41h-3.07
		C598.22,477.74,597.94,477.34,597.5,477.07"/>
	<path style="fill:#80BC00;" d="M605.07,471.17c-0.42-0.36-0.64-0.82-0.64-1.36v-0.08c0-0.54,0.21-0.99,0.64-1.36
		c0.42-0.36,0.94-0.55,1.55-0.55c0.61,0,1.13,0.18,1.55,0.55c0.42,0.36,0.64,0.82,0.64,1.36v0.08c0,0.54-0.21,0.99-0.64,1.36
		c-0.42,0.37-0.94,0.55-1.55,0.55C606.01,471.71,605.49,471.53,605.07,471.17 M604.71,474h3.81v14.22h-3.81V474z"/>
	<path style="fill:#80BC00;" d="M611.95,474h3.81v14.22h-3.81V474z M615.16,478.17c0.33-1.15,0.91-2.15,1.74-3.01
		c0.83-0.86,1.95-1.28,3.35-1.28h0.08l-1.02,3.3h-0.08c-0.91,0-1.64,0.22-2.17,0.66c-0.53,0.44-0.9,0.98-1.09,1.61
		c-0.2,0.64-0.29,1.28-0.29,1.94h-1.02C614.67,480.39,614.83,479.32,615.16,478.17 M620.31,473.87h0.08c0.93,0,1.76,0.25,2.5,0.75
		c0.74,0.5,1.32,1.24,1.75,2.22c0.43,0.98,0.65,2.16,0.65,3.53v7.85h-3.81v-7.85c0-1.03-0.17-1.82-0.51-2.37
		c-0.34-0.55-0.87-0.83-1.6-0.83h-0.08L620.31,473.87z"/>
	<path style="fill:#80BC00;" d="M630.96,487.5c-0.91-0.57-1.63-1.38-2.18-2.45c-0.55-1.07-0.83-2.31-0.83-3.73
		c0-1.47,0.25-2.77,0.76-3.9c0.51-1.13,1.22-2,2.15-2.62c0.92-0.62,1.98-0.93,3.16-0.93h0.08l0.76,3.05h-0.08
		c-0.96,0-1.71,0.38-2.23,1.14c-0.52,0.76-0.79,1.8-0.79,3.12c0,1.27,0.27,2.27,0.8,3.01c0.53,0.74,1.23,1.1,2.1,1.1h0.05
		l-0.76,3.05h-0.05C632.85,488.35,631.87,488.07,630.96,487.5 M641.77,474v13.79c0,1.1-0.27,2.06-0.8,2.88
		c-0.53,0.82-1.29,1.45-2.26,1.89c-0.97,0.44-2.1,0.66-3.39,0.66h-5.39v-3.05h5.39c0.91,0,1.58-0.19,2.01-0.57
		c0.42-0.38,0.63-0.99,0.63-1.82V474H641.77z M634.68,485.3h0.08c1.05,0,1.85-0.3,2.41-0.9c0.56-0.6,0.85-1.38,0.89-2.35l1.07,0.2
		c-0.12,1.93-0.61,3.43-1.47,4.5c-0.86,1.07-2.08,1.6-3.66,1.6h-0.08L634.68,485.3z M634.07,473.87h0.08c1.62,0,2.84,0.58,3.64,1.73
		c0.8,1.15,1.28,2.79,1.44,4.9l-1.17,0.25c-0.04-1.18-0.3-2.12-0.81-2.81c-0.51-0.69-1.29-1.03-2.34-1.03h-0.08L634.07,473.87z"/>
	<path style="fill:#80BC00;" d="M498.94,474.01h3.81v14.22h-3.81V474.01z M502.15,478.18c0.33-1.15,0.91-2.15,1.74-3.01
		c0.83-0.86,1.95-1.28,3.35-1.28h0.08l-1.02,3.3h-0.08c-0.91,0-1.64,0.22-2.17,0.66c-0.53,0.44-0.9,0.98-1.09,1.61
		c-0.19,0.64-0.29,1.28-0.29,1.94h-1.02C501.65,480.41,501.82,479.33,502.15,478.18 M507.29,473.89h0.08c0.93,0,1.76,0.25,2.5,0.75
		c0.74,0.5,1.32,1.24,1.75,2.22c0.43,0.98,0.65,2.16,0.65,3.53v7.85h-3.81v-7.85c0-1.03-0.17-1.82-0.51-2.37
		c-0.34-0.55-0.87-0.83-1.6-0.83h-0.08L507.29,473.89z"/>
	<path style="fill:#80BC00;" d="M528.78,488.24h-3.81v-20.07h3.81V488.24z M521.92,476.93h-0.08l-0.76-3.05h0.08
		c1.63,0,2.84,0.58,3.65,1.73s1.28,2.79,1.43,4.9l-1.17,0.25c-0.03-1.19-0.3-2.12-0.81-2.81
		C523.75,477.28,522.97,476.93,521.92,476.93 M521.01,488.36h-0.08l0.76-3.05h0.08c1.05,0,1.85-0.3,2.41-0.9
		c0.56-0.6,0.86-1.38,0.89-2.35l1.07,0.2c-0.12,1.93-0.61,3.43-1.47,4.5C523.8,487.83,522.58,488.36,521.01,488.36 M520.96,488.36
		h-0.05c-1.05,0-2.03-0.28-2.93-0.85c-0.91-0.57-1.63-1.38-2.18-2.45c-0.55-1.07-0.83-2.31-0.83-3.73c0-1.47,0.25-2.77,0.76-3.9
		c0.51-1.13,1.22-2,2.15-2.62c0.92-0.62,1.98-0.93,3.16-0.93h0.08l0.76,3.05h-0.08c-0.96,0-1.71,0.38-2.23,1.14s-0.79,1.8-0.79,3.12
		c0,1.27,0.27,2.27,0.8,3.01c0.53,0.74,1.23,1.11,2.1,1.11h0.05L520.96,488.36z"/>
	<path style="fill:#80BC00;" d="M485.05,487.51c-0.91-0.57-1.63-1.38-2.18-2.45c-0.55-1.07-0.82-2.31-0.82-3.73
		c0-1.47,0.25-2.77,0.76-3.9c0.51-1.13,1.22-2,2.15-2.62c0.92-0.62,1.98-0.93,3.16-0.93h0.08l0.76,3.05h-0.08
		c-0.96,0-1.71,0.38-2.23,1.14c-0.52,0.76-0.79,1.8-0.79,3.12c0,1.27,0.27,2.27,0.8,3.01c0.53,0.74,1.23,1.11,2.1,1.11h0.05
		l-0.76,3.05h-0.05C486.94,488.36,485.96,488.08,485.05,487.51 M488.77,485.32h0.08c1.05,0,1.85-0.3,2.41-0.9
		c0.56-0.6,0.86-1.38,0.89-2.35l1.07,0.2c-0.12,1.93-0.61,3.43-1.47,4.5c-0.86,1.07-2.08,1.6-3.66,1.6h-0.08L488.77,485.32z
		 M488.16,473.89h0.08c1.62,0,2.84,0.58,3.64,1.73c0.8,1.15,1.28,2.79,1.43,4.9l-1.17,0.25c-0.03-1.19-0.3-2.12-0.81-2.81
		c-0.51-0.69-1.29-1.03-2.34-1.03h-0.08L488.16,473.89z M492.05,474.01h3.81v14.22h-3.81V474.01z"/>
</g>
<g>
	<path style="fill:#FFFFFF;" d="M166.77,165.29c0,2.77-1.21,3.84-4.3,3.84h-4.57c-3.03,0-5.17-0.71-6.37-2.1
		c-1.12-1.31-1.49-3.31-1.09-5.96l1.33-8.92h-5.13l-1.22,7.99l0,0c-0.66,4.62,0.23,8.49,2.56,11.18c2.21,2.54,5.63,3.89,9.91,3.89
		h4.57c6.03,0,9.63-3.71,9.63-9.93v-20.15h-5.32V165.29z"/>
	<rect x="156.04" y="142.65" style="fill:#FFFFFF;" width="5.73" height="6.09"/>
	<path style="fill:#FFFFFF;" d="M288.12,158.12c0,1.09-0.23,1.8-0.71,2.18c-0.53,0.43-1.43,0.49-2.76,0.2l-3.61-0.76
		c-1.79-0.4-2.1-1.01-2.1-2.23v-11.15h-5.33l0,11.17l0.05,0.9c-0.2,0.6-0.77,1.15-3.18,1.15h-1.68c-3.06,0-4.25-1.08-4.25-3.84
		v-8.36h-5.33v8.36c0,0.8,0.08,1.66,0.22,2.5c-1.07,0.86-2.81,1.35-4.83,1.35h-2.32h-1.25h-0.85c-1.7,0-2.55-0.17-3.02-0.63l0.04-2
		c0-8.41-4.82-13.24-13.24-13.24h-26.82v-0.79c0-2.18,0.65-3.35,2.59-4.68l8.52-5.99l-2.61-4.52l-8.57,6.03
		c-3.08,2.12-4.64,5.2-4.64,9.15v6.22H234c5.47,0,7.91,2.41,7.91,7.81v1.37c0,1-0.16,1.25-1.66,1.25h-40.29h-1.26h-7.89h-1.26h-3.64
		c-1.46,0-2.07-0.32-2.07-2.32v-30.42h-5.33v30.42c0,5.11,2.9,8.41,7.39,8.41h3.64h1.26h7.89h1.26h40.29c2.81,0,4.46-1.19,5.41-2.35
		c1.06,1.58,2.55,2.35,4.55,2.35h0.85h1.25h2.32c2.98,0,5.24-0.96,6.87-2.93c1.68,1.92,4.2,2.93,7.31,2.93h1.68
		c2.2,0,3.98-0.8,5.17-2.32c1.1,1.16,2.51,1.93,4.21,2.31l3.6,0.76c0.88,0.21,1.72,0.31,2.52,0.31c1.75,0,3.28-0.49,4.51-1.47
		c1.89-1.5,2.94-4.04,2.94-7.14v-14.51h-5.33V158.12z"/>
	<path style="fill:#FFFFFF;" d="M304.58,173.98c0-1.92,0.64-2.67,2.27-2.67h3.07v-3.09h-3.07c-3.2,0-5.1,2.15-5.1,5.76v0.19h-1.48
		v3.09h10.26v-3.09h-5.95V173.98z"/>
	<path style="fill:#FFFFFF;" d="M318.32,157.67c0,0.95-0.28,1.91-2.32,1.91h-18.68v6.09H316c4.57,0,7.64-3.21,7.64-8v-31.08h-5.32
		V157.67z"/>
	<polygon style="fill:#FFFFFF;" points="311.33,157.13 306.22,132.91 301.02,134.21 305.78,157.13 	"/>
	<rect x="331.23" y="126.84" style="fill:#FFFFFF;" width="5.33" height="38.88"/>
	<path style="fill:#FFFFFF;" d="M352.5,142.75h-0.3c-6.15,0-10.29,4.32-10.29,10.75v1.42c0,6.46,4.26,10.8,10.59,10.8h4.96v0.59
		c0,1.79-0.45,2.37-3.62,3.04l-10.53,2.37l1.18,5.31l10.53-2.37c3.34-0.68,7.77-2.29,7.77-8.35V153.5
		C362.79,147.07,358.66,142.75,352.5,142.75 M347.24,153.5c0-3.23,1.76-5.01,4.96-5.01h0.3c3.25,0,4.96,1.73,4.96,5.01v6.49h-4.96
		c-3.35,0-5.27-1.85-5.27-5.06V153.5z"/>
	<path style="fill:#FFFFFF;" d="M417.05,159.58h-25.2c-4.7,0-6.79-1.97-6.79-6.39v-7.44h-5.33v7.44c0,7.81,4.53,12.48,12.12,12.48
		h30.52V142.6h-5.32V159.58z"/>
	<rect x="402.97" y="138.99" style="fill:#FFFFFF;" width="5.38" height="6.09"/>
	<rect x="395.85" y="138.99" style="fill:#FFFFFF;" width="5.43" height="6.09"/>
	<rect x="448.32" y="170.25" style="fill:#FFFFFF;" width="5.38" height="6.09"/>
	<rect x="441.2" y="170.25" style="fill:#FFFFFF;" width="5.43" height="6.09"/>
	<path style="fill:#FFFFFF;" d="M450.9,158.28V142.6h-5.33v15.68c0,1.01-0.22,1.3-1.71,1.3h-2.88h-1.26h-3.64
		c-1.46,0-2.07-0.32-2.07-2.32v-30.42h-5.32v30.42c0,5.11,2.9,8.41,7.39,8.41h3.64h1.26h2.88
		C449.05,165.67,450.9,161.85,450.9,158.28"/>
	<rect x="502.21" y="170.51" style="fill:#FFFFFF;" width="5.73" height="6.09"/>
	<path style="fill:#FFFFFF;" d="M520.66,157.67c0,0.99-0.29,1.91-2.37,1.91h-2.17h-1.26h-2.63c-3.06,0-4.25-1.08-4.25-3.84v-8.36
		h-5.32v8.36c0,0.87,0.06,1.61,0.17,2.23c-0.93,1.04-2.6,1.61-4.73,1.61h-2.32h-1.26h-0.39c-2.57,0-3.87-0.42-4.45-1.45v-31.54
		h-5.32v31.08c0,0.99-0.29,1.91-2.37,1.91h-2.12h-1.31h-0.34c-2.17,0-3.45-0.32-4.14-1.02c0.07-0.97-0.02-2.06-0.28-3.26l-1.37-5.9
		c-1.2-5.15-4.37-7.86-9.16-7.86h-5.87v6.09h5.87c2.42,0,3.56,0.89,4.06,3.17l1.37,5.9c0.24,0.97,0.18,1.65-0.16,2.09
		c-0.42,0.54-1.33,0.8-2.78,0.8h-11.25v6.09h11.25c2.95,0,5.33-1.05,6.78-2.98c1.23,1.98,3.14,2.98,5.67,2.98h0.34h1.31h2.12
		c2.73,0,5.02-1.16,6.38-3.21c1.2,2.11,3.18,3.21,5.77,3.21h0.39h1.26h2.32c2.96,0,5.24-0.92,6.96-2.8c1.68,1.84,4.14,2.8,7.17,2.8
		h2.63h1.26h2.17c4.6,0,7.7-3.21,7.7-8v-31.08h-5.32V157.67z"/>
	<rect x="533.52" y="126.84" style="fill:#FFFFFF;" width="5.33" height="38.88"/>
	<rect x="568.55" y="131.11" style="fill:#FFFFFF;" width="5.38" height="6.09"/>
	<rect x="561.43" y="131.11" style="fill:#FFFFFF;" width="5.43" height="6.09"/>
	<path style="fill:#FFFFFF;" d="M578.95,153.59l-0.4-2.34l0-0.01c-1.19-5.89-4.31-8.64-9.82-8.64h-8.65l-2.4,12.35
		c-0.61,3.04-0.09,5.68,1.49,7.61c1.59,1.94,4.19,3.01,7.31,3.01h3.15c3.11,0,5.77-1.14,7.49-3.2
		C578.95,160.16,579.6,157.04,578.95,153.59 M572.99,158.85c-0.71,0.86-1.83,1.29-3.36,1.29h-3.15c-1.58,0-2.63-0.34-3.2-1.03
		c-0.55-0.66-0.68-1.68-0.4-3.09l1.57-7.98h4.27c2.89,0,3.86,0.92,4.51,4.27l0.41,2.24C574,156.4,573.78,157.89,572.99,158.85"/>
	<path style="fill:#FFFFFF;" d="M586.19,165.8c0,2.27-0.82,3.47-2.91,4.28l-4.67,1.81l2,5.07l4.57-1.82
		c4.21-1.63,6.34-4.77,6.34-9.35v-21.67h-5.33V165.8z"/>
	<rect x="597.53" y="126.84" style="fill:#FFFFFF;" width="5.33" height="38.88"/>
	<rect x="611.36" y="132.28" style="fill:#FFFFFF;" width="5.73" height="6.09"/>
	<path style="fill:#FFFFFF;" d="M611.97,165.8c0,2.27-0.82,3.47-2.91,4.28l-4.67,1.81l2.01,5.07l4.57-1.82
		c4.21-1.63,6.34-4.77,6.34-9.35v-21.67h-5.33V165.8z"/>
	<path style="fill:#FFFFFF;" d="M631.86,142.75h-0.3c-6.15,0-10.29,4.32-10.29,10.75v1.42c0,6.46,4.26,10.8,10.59,10.8h4.96v0.59
		c0,1.79-0.45,2.37-3.62,3.04l-10.53,2.37l1.18,5.31l10.53-2.37c3.34-0.68,7.77-2.29,7.77-8.35V153.5
		C642.15,147.07,638.02,142.75,631.86,142.75 M626.6,153.5c0-3.23,1.76-5.01,4.96-5.01h0.3c3.25,0,4.96,1.73,4.96,5.01v6.49h-4.96
		c-3.35,0-5.27-1.85-5.27-5.06V153.5z"/>
	<path style="fill:#FFFFFF;" d="M812.44,255.34c-64.4,0-116.72-52.47-116.72-116.72l0.95-16.08h18.27V98.01h2.04v-3.86h8.73
		l2.55,4.22h4.58v31.15h3.64v4.44h1.38v-25.03h14.63v6.4h4.8v12.08h8.22v-11.72h11.06l3.86,5.02v13.32h22.56v3.35H777V121.8
		l-2.18-2.84h-5.9v15.72h-4.58v-4H754V118.6h-4.8v-6.48h-7.93v25.11h-8.08v-4.44h-3.64v-31.15h-3.06l-2.55-4.22h-3.49v3.86h-2.04
		v24.6h-18.41l-0.65,12.88c0,62.36,50.87,113.23,113.38,113.23c62.37,0,113.23-50.58,113.38-112.79h-11.86v-19.87h-6.99v-10.26
		h-7.93v-4.44h-9.82v3.06l-2.04,2.18v18.41h-9.97v-13.61l-2.55-2.84h-5.24v-4.66h-6.11v30.13h-10.04V126.1h-9.02v11.21h-23.87v-3.35
		h20.45v-11.21h15.72v11.21h3.35v-30.13h13.03v4.66h3.64l4.29,4.8V125h3.06v-16.45l2.04-2.18v-5.09h16.52v4.44h7.93v10.26h6.84
		v19.87h11.57v2.98C929.24,203.09,876.77,255.34,812.44,255.34"/>
	<path style="fill:#FFFFFF;" d="M768.27,208.47c-0.95,0-1.89,0.22-2.84,0.65c-2.4,1.75-3.2,5.1-1.75,7.64
		c0.65,1.24,1.89,2.04,3.64,2.55c0.58,0,1.02,0.15,1.75,0.15c7.13,0,13.46-4.44,18.7-8.59l0.95-0.8l0.65,1.02
		c2.4,4,6.62,6.99,11.06,7.79h0.95c3.06,0,6.62-1.46,7.28-4.8c0.44-2.4-1.02-5.09-3.35-6.19c-1.38-0.58-3.2-0.58-5.68,0.58
		c-0.58,0.22-0.8,0.95-1.02,2.04c-0.22,1.02-0.66,2.84-2.4,2.84c-1.38,0-3.2-1.02-4-2.4c-0.44-0.8-0.44-1.6,0-2.26
		c3.64-5.46,8.44-9.46,13.03-13.03c2.18-1.75,4.29-3.49,6.33-5.39l0.8-0.66l0.8,0.66c2.04,1.89,4.22,3.64,6.33,5.24
		c4.8,3.86,9.97,7.79,13.02,13.68c0.15,0.22,0.44,0.8,0.15,1.38c-0.44,1.02-2.4,2.84-3.86,2.98c-0.95,0.15-1.46-0.15-1.75-0.44
		c-0.58-0.58-0.58-1.38-0.58-1.89c0-0.44,0-0.95-0.14-1.24c-0.66-1.38-2.18-1.75-3.64-2.18c-2.69-0.65-5.82,1.45-6.48,4.44
		c-0.22,1.38,0,2.69,0.65,3.86c1.6,2.04,3.64,3.06,6.04,3.06c4.8,0,10.04-4,12.52-7.93l0.66-1.02l0.95,0.8
		c4.8,3.86,11.21,8.22,17.47,8.22c1.75,0,3.35-0.22,5.02-0.95c1.02-0.58,2.04-1.6,2.4-2.98c0.44-1.46,0.15-2.98-0.66-4.22
		c-1.02-1.6-2.84-2.4-4.66-2.4c-1.89,0-3.78,0.95-4.66,2.4l-0.58,0.8l-0.8-0.22c-3.2-1.24-7.28-3.06-9.24-6.62
		c-0.8-1.24-0.44-2.98,0.22-4.22c0.65-1.24,1.38-1.45,1.89-1.45c0.22,0,0.58,0,0.65,0.14c1.6,0.95,3.2,1.45,4.66,1.45
		c2.69,0,4.8-1.6,5.46-4.29c0.22-1.38,0-2.69-0.8-4c-0.8-1.24-2.18-2.18-3.64-2.55h-0.95c-2.55,0-5.1,1.24-6.7,3.2
		c-1.02,1.24-1.46,2.84-2.04,4.44c-0.44,1.46-0.95,2.84-1.75,4.22l-0.65,1.02l-20.16-18.7l0.8-0.8
		c21.76-20.96,51.08-28.38,75.03-30.56c-3.06-0.22-6.18-0.44-9.24-0.44c-26.49,0-51.45,9.17-70.37,25.69l-0.66,0.58l-0.65-0.58
		c-9.82-7.28-23.14-16.3-38.42-20.74c-14.26-4.22-28.53-5.82-42.21-4.59c23.94,2.18,53.27,9.53,75.17,30.64l0.8,0.8l-20.16,18.7
		l-0.66-1.02c-0.95-1.38-1.38-2.84-1.75-4.22c-0.58-1.6-0.95-3.06-2.04-4.44c-1.46-1.46-2.98-2.26-5.09-3.06
		c-3.2-0.66-6.19,1.24-6.84,4.44c-0.44,2.4,1.02,5.02,3.35,6.19c0.22,0.14,0.8,0.14,1.38,0.14c1.45,0,2.98-0.65,4.44-1.24l0.66-0.22
		c0.22-0.15,0.44-0.15,0.65-0.15c0.95,0,1.75,0.66,2.26,1.6c0.66,1.24,0.95,2.84,0.15,4c-2.04,3.49-6.04,5.24-9.24,6.62l-0.8,0.22
		l-0.58-0.65C772.05,209.49,770.16,208.47,768.27,208.47 M769.07,221.72c-0.66,0-1.38,0-2.18-0.15c-2.69-0.65-4.29-1.89-5.24-3.64
		c-2.04-3.5-0.95-8.08,2.55-10.63c3.49-2.04,7.64-1.02,10.26,1.75c2.69-1.02,5.89-2.69,7.42-5.38c0.15-0.14,0.15-0.66,0-1.24
		c-0.14-0.58-0.44-0.95-0.58-1.02l-0.58,0.22c-1.6,0.66-3.35,1.38-5.38,1.38c-0.8,0-1.46-0.15-2.18-0.44
		c-3.2-1.6-5.09-5.24-4.66-8.59c0.8-3.86,3.86-6.48,7.64-6.48c0.66,0,1.38,0.15,1.89,0.22h0.15c2.4,0.95,4.22,1.89,6.04,3.79
		c1.38,1.6,2.04,3.49,2.55,5.24c0.22,0.8,0.58,1.75,0.95,2.4l16.45-15.21c-25.03-23.36-59.53-29.18-84.34-29.84l-10.26-0.22
		l9.9-1.89c17.46-3.35,36.02-2.4,54.65,3.06c15.21,4.44,28.53,13.32,38.42,20.52c19.28-16.52,44.39-25.69,71.17-25.69
		c7.13,0,14.26,0.65,21.1,2.04l10.26,1.89l-10.48,0.22c-24.74,0.65-59.31,6.48-84.34,29.83l16.45,15.21c0.44-0.8,0.58-1.6,0.95-2.4
		c0.58-1.75,1.02-3.64,2.4-5.24c2.26-2.84,6.19-4.44,9.82-3.86c2.04,0.58,3.86,1.75,5.02,3.35c1.24,1.75,1.6,3.86,1.24,5.82
		c-0.95,3.64-3.86,5.9-7.64,5.9c-1.75,0-3.64-0.58-5.24-1.46c-0.22,0.58-0.58,1.6-0.22,2.04c1.46,2.69,4.66,4.29,7.42,5.38
		c1.46-1.75,3.64-2.69,6.04-2.69c2.69,0,5.09,1.38,6.62,3.49c1.24,1.75,1.6,3.86,0.95,6.04c-0.58,2.04-1.89,3.64-3.64,4.29
		c-1.89,0.8-3.79,1.24-5.82,1.24c-6.62,0-13.02-4.22-17.9-7.93c-3.06,4-8.44,7.93-13.68,7.93c-3.06,0-5.9-1.38-7.93-4
		c-1.24-1.75-1.6-3.86-1.02-5.82c0.95-3.64,4.22-6.33,7.49-6.33c0.58,0,1.02,0.15,1.6,0.22c1.89,0.44,4,0.94,5.09,3.2
		c0.58,0.66,0.44,1.75,0.44,2.4c0.58-0.15,1.38-0.8,1.75-1.38c-2.98-5.39-7.5-8.88-12.37-12.81c-1.89-1.46-3.86-2.98-5.68-4.66
		c-1.89,1.75-3.78,3.2-5.68,4.8c-4.66,3.78-9.17,7.42-12.52,12.66c0.15,0.44,1.38,1.24,2.04,1.38c0.15-0.22,0.22-0.8,0.44-1.02
		c0.22-1.24,0.65-2.98,2.4-3.64c2.98-1.24,5.24-1.38,7.42-0.44c3.2,1.6,5.09,5.24,4.58,8.59c-1.02,5.09-6.48,7.13-10.84,6.62
		c-4.66-0.8-9.17-3.78-12.01-7.79C782.82,217.57,776.49,221.72,769.07,221.72"/>
	<path style="fill:#FFFFFF;" d="M855.01,71.15l2.84,2.18l-2.04-2.84c-13.03-18.7-27.73-19.28-32.38-18.85
		c0.94-0.95,2.55-2.55,4.8-3.35l1.6-0.65l-1.6-0.44c-3.49-0.95-8.44-1.75-12.66,1.75c-0.66-3.49-2.26-7.42-3.2-8.08
		c-0.22-0.15-0.58-0.22-0.65-0.15c-1.02,0.22-3.06,3.2-4,8.22c-2.98-2.4-8.08-3.49-12.22-1.38l-1.24,0.66l1.38,0.44
		c0,0,2.84,0.95,4.44,3.35c-19.07,0.44-25.98,9.82-31.58,17.32c-0.44,0.58-0.8,1.02-1.24,1.6l0.8,0.8
		c7.79-7.28,19.87-9.68,25.69-8.22c-6.99,2.84-20.3,10.84-24.89,33.91l-0.58,2.98l1.6-2.55c7.64-12.08,15.07-19.36,23.94-23.36
		c-5.82,8.73-13.61,23.65-10.48,37.11l0.44,2.4l0.58-2.55c2.98-13.32,10.77-24.3,15.86-29.33c-4.22,14.85-2.55,29.04-0.44,34.71
		l0.95,2.55l0.15-2.69c0.8-12.23,4.22-25.33,6.69-31.58l1.75,12.08l-1.02,0.22l0.8,16.67h-1.31l1.38,17.1l-1.46,0.44v0.58
		c0,0.15,1.02,10.77,1.46,16.81c-2.04,1.02-4,3.06-4.66,3.78v1.02h14.92v-1.02v-0.14c-1.46-1.89-3.79-3.06-4.59-3.64l1.6-17.9
		l-1.6,0.14l1.02-17.61l-1.24,0.15l0.8-16.67h-1.38c0.22-1.45,0.8-5.46,1.46-12.22c3.2,5.46,6.04,16.95,7.5,31.15l0.44,4.29
		l0.65-4.22c2.84-17.32,0.15-30.64-1.02-35.22c4.44,4.29,13.32,19.5,16.3,30.35l0.8,3.2l0.22-3.35
		c1.02-14.48-2.26-25.54-11.43-37.55c3.78,1.02,8.3,4.22,13.17,9.02c4.58,4.44,8.88,10.26,11.28,14.63l1.38,2.55l-0.22-2.98
		c-1.75-17.75-15.06-30.27-24.6-33.98C838.56,61.62,851.15,68.31,855.01,71.15"/>
	<path style="fill:#FFFFFF;" d="M149.53,202.22h0.33l-0.84,16.08l-3.81-0.15l0.99-18.97h3.33V202.22z M163.19,202.22h-0.38l-4.8,16
		h-3.76l-4.8-16h-0.36v-3.05h2.64l4.8,16h-0.81l4.8-16h2.67V202.22z M163.24,218.3l-0.86-16.08h0.38v-3.05h3.28l1.02,18.97
		L163.24,218.3z"/>
	<path style="fill:#FFFFFF;" d="M170.94,201.17c-0.42-0.36-0.63-0.82-0.63-1.36v-0.08c0-0.54,0.21-0.99,0.63-1.36
		c0.42-0.36,0.94-0.55,1.55-0.55c0.61,0,1.13,0.18,1.55,0.55c0.42,0.36,0.63,0.82,0.63,1.36v0.08c0,0.54-0.21,0.99-0.63,1.36
		c-0.42,0.37-0.94,0.55-1.55,0.55C171.88,201.71,171.36,201.53,170.94,201.17 M170.59,204h3.81v14.22h-3.81V204z"/>
	<path style="fill:#FFFFFF;" d="M177.82,204h3.81v14.22h-3.81V204z M181.04,208.17c0.33-1.15,0.91-2.16,1.74-3.01
		c0.83-0.86,1.95-1.28,3.35-1.28h0.08l-1.02,3.3h-0.08c-0.91,0-1.64,0.22-2.17,0.66c-0.53,0.44-0.9,0.98-1.09,1.61
		c-0.19,0.64-0.29,1.28-0.29,1.94h-1.02C180.54,210.39,180.71,209.32,181.04,208.17 M186.18,203.87h0.08c0.93,0,1.76,0.25,2.5,0.75
		c0.74,0.5,1.32,1.24,1.75,2.22c0.43,0.98,0.65,2.16,0.65,3.53v7.85h-3.81v-7.85c0-1.03-0.17-1.82-0.51-2.37
		c-0.34-0.55-0.87-0.83-1.6-0.83h-0.08L186.18,203.87z"/>
	<path style="fill:#FFFFFF;" d="M194.82,201.17c-0.42-0.36-0.63-0.82-0.63-1.36v-0.08c0-0.54,0.21-0.99,0.63-1.36
		c0.42-0.36,0.94-0.55,1.55-0.55c0.61,0,1.13,0.18,1.55,0.55c0.42,0.36,0.63,0.82,0.63,1.36v0.08c0,0.54-0.21,0.99-0.63,1.36
		c-0.42,0.37-0.94,0.55-1.55,0.55C195.76,201.71,195.24,201.53,194.82,201.17 M194.46,204h3.81v14.22h-3.81V204z"/>
	<path style="fill:#FFFFFF;" d="M207.16,218.35h-0.25c-1.56,0-2.89-0.4-3.99-1.21c-1.1-0.8-1.73-2-1.88-3.59h3.07
		c0.12,0.71,0.41,1.22,0.86,1.54c0.46,0.31,1.1,0.47,1.93,0.47h0.25V218.35z M206.88,206.67h-0.03c-0.59,0-1.08,0.11-1.46,0.33
		c-0.38,0.22-0.64,0.48-0.79,0.79c-0.14,0.3-0.16,0.58-0.06,0.84c0.13,0.32,0.42,0.55,0.85,0.67c0.43,0.13,1.07,0.25,1.92,0.37
		c0.91,0.14,1.66,0.28,2.25,0.42c0.58,0.14,1.14,0.39,1.68,0.74s0.94,0.83,1.23,1.46c0.44,0.95,0.5,1.89,0.18,2.83
		c-0.32,0.94-0.96,1.71-1.93,2.32c-0.97,0.61-2.13,0.91-3.48,0.91h-0.08v-2.79h0.08c0.57,0,1.06-0.11,1.45-0.34
		c0.39-0.23,0.65-0.51,0.79-0.84c0.13-0.33,0.13-0.64,0-0.93c-0.17-0.37-0.49-0.64-0.97-0.79c-0.47-0.15-1.18-0.3-2.11-0.43
		c-0.86-0.12-1.58-0.24-2.15-0.38c-0.57-0.14-1.1-0.38-1.61-0.72c-0.51-0.35-0.89-0.83-1.14-1.44c-0.37-0.93-0.38-1.85-0.03-2.75
		c0.36-0.91,1.01-1.64,1.97-2.21c0.96-0.57,2.1-0.85,3.42-0.85h0.03V206.67z M208.58,207.07c-0.44-0.27-1-0.41-1.68-0.41h-0.05
		v-2.79h0.05c0.91,0,1.78,0.17,2.59,0.49c0.81,0.33,1.49,0.83,2.03,1.49c0.54,0.66,0.86,1.46,0.96,2.41h-3.07
		C209.3,207.74,209.02,207.34,208.58,207.07"/>
	<path style="fill:#FFFFFF;" d="M223.85,207.05h-9.3v-2.79h9.3V207.05z M223.85,218.22h-2.18c-1.47,0-2.65-0.37-3.52-1.12
		c-0.87-0.74-1.31-1.85-1.31-3.33v-14.6h3.81v14.6c0,0.37,0.02,0.63,0.05,0.78c0.03,0.14,0.12,0.24,0.25,0.29
		c0.14,0.05,0.37,0.08,0.71,0.08h2.18V218.22z"/>
	<path style="fill:#FFFFFF;" d="M226.52,204h3.81v14.22h-3.81V204z M231.31,205.55c1.09-1.17,2.53-1.75,4.3-1.75v3.56
		c-1.78,0-3.1,0.32-3.96,0.95c-0.86,0.63-1.33,1.56-1.4,2.78l-0.76-0.15C229.61,208.51,230.21,206.72,231.31,205.55"/>
	<path style="fill:#FFFFFF;" d="M236.73,204h4.06l5.92,13.59l-2.82,2.11L236.73,204z M253.11,204l-8.13,20.17h-4.01L249.1,204
		H253.11z"/>
	<path style="fill:#FFFFFF;" d="M273.71,214.78c-0.66,1.11-1.55,1.98-2.68,2.62c-1.13,0.64-2.36,0.95-3.7,0.95
		c-1.35,0-2.59-0.32-3.71-0.95c-1.12-0.64-2.01-1.5-2.67-2.6c-0.66-1.1-0.99-2.33-0.99-3.68c0-1.35,0.33-2.58,0.99-3.68
		c0.66-1.1,1.55-1.97,2.67-2.6c1.12-0.63,2.35-0.95,3.71-0.95c1.34,0,2.57,0.32,3.7,0.95c1.13,0.64,2.02,1.51,2.68,2.62
		c0.66,1.11,0.99,2.33,0.99,3.67C274.7,212.45,274.37,213.67,273.71,214.78 M270.4,209.08c-0.33-0.59-0.77-1.06-1.31-1.4
		c-0.54-0.34-1.13-0.51-1.75-0.51c-0.63,0-1.21,0.17-1.76,0.5c-0.55,0.33-0.99,0.8-1.31,1.4c-0.32,0.6-0.48,1.28-0.48,2.04
		c0,0.76,0.16,1.44,0.48,2.05c0.32,0.6,0.76,1.07,1.31,1.4c0.55,0.33,1.14,0.5,1.76,0.5c0.63,0,1.21-0.17,1.75-0.51
		c0.54-0.34,0.98-0.8,1.31-1.4c0.33-0.59,0.49-1.27,0.49-2.03C270.89,210.35,270.73,209.67,270.4,209.08"/>
	<path style="fill:#FFFFFF;" d="M285.04,207.05h-9.27v-2.79h9.27V207.05z M277.95,218.22v-14.63c0-1.51,0.49-2.71,1.47-3.61
		c0.98-0.9,2.3-1.35,3.94-1.35h0.08v3.05h-0.08c-0.56,0-0.96,0.14-1.22,0.43c-0.25,0.29-0.38,0.78-0.38,1.47v14.63H277.95z
		 M283.41,198.64h0.02c0.61,0,1.14,0.07,1.6,0.2v3.05c-0.1-0.03-0.19-0.05-0.25-0.05c-0.47-0.1-0.92-0.15-1.35-0.15h-0.02V198.64z"
		/>
	<path style="fill:#FFFFFF;" d="M297.26,202.22h0.33l-0.84,16.08l-3.81-0.15l0.99-18.97h3.33V202.22z M310.92,202.22h-0.38l-4.8,16
		h-3.76l-4.8-16h-0.36v-3.05h2.64l4.8,16h-0.81l4.8-16h2.67V202.22z M310.97,218.3l-0.86-16.08h0.38v-3.05h3.28l1.02,18.97
		L310.97,218.3z"/>
	<path style="fill:#FFFFFF;" d="M323.04,218.35h-0.08c-0.93,0-1.76-0.25-2.5-0.75c-0.74-0.5-1.32-1.24-1.75-2.22
		c-0.43-0.98-0.65-2.16-0.65-3.53V204h3.81v7.85c0,1.03,0.17,1.82,0.51,2.37c0.34,0.55,0.87,0.83,1.6,0.83h0.08L323.04,218.35z
		 M328.18,214.06c-0.33,1.15-0.91,2.16-1.74,3.01c-0.83,0.86-1.95,1.28-3.35,1.28h-0.08l1.02-3.3h0.08c0.91,0,1.64-0.22,2.17-0.66
		c0.53-0.44,0.9-0.98,1.09-1.61c0.2-0.63,0.29-1.28,0.29-1.94h1.02C328.68,211.83,328.51,212.91,328.18,214.06 M331.4,218.22h-3.81
		V204h3.81V218.22z"/>
	<path style="fill:#FFFFFF;" d="M334.7,204h3.81v14.22h-3.81V204z M337.91,208.17c0.33-1.15,0.91-2.16,1.74-3.01
		c0.83-0.86,1.95-1.28,3.35-1.28h0.08l-1.02,3.3h-0.08c-0.91,0-1.64,0.22-2.17,0.66c-0.53,0.44-0.9,0.98-1.09,1.61
		c-0.19,0.64-0.29,1.28-0.29,1.94h-1.02C337.41,210.39,337.58,209.32,337.91,208.17 M343.05,203.87h0.08c0.93,0,1.76,0.25,2.5,0.75
		c0.74,0.5,1.32,1.24,1.75,2.22c0.43,0.98,0.65,2.16,0.65,3.53v7.85h-3.81v-7.85c0-1.03-0.17-1.82-0.51-2.37
		c-0.34-0.55-0.87-0.83-1.6-0.83h-0.08L343.05,203.87z"/>
	<path style="fill:#FFFFFF;" d="M351.69,201.17c-0.42-0.36-0.63-0.82-0.63-1.36v-0.08c0-0.54,0.21-0.99,0.63-1.36
		c0.42-0.36,0.94-0.55,1.55-0.55c0.61,0,1.13,0.18,1.55,0.55c0.42,0.36,0.64,0.82,0.64,1.36v0.08c0,0.54-0.21,0.99-0.64,1.36
		c-0.42,0.37-0.94,0.55-1.55,0.55C352.63,201.71,352.11,201.53,351.69,201.17 M351.33,204h3.81v14.22h-3.81V204z"/>
	<path style="fill:#FFFFFF;" d="M370.02,215.86c-0.65,0.83-1.44,1.45-2.38,1.87c-0.93,0.41-1.86,0.62-2.79,0.62h-0.33
		c-1.3,0-2.45-0.27-3.44-0.81c-0.99-0.54-1.74-1.24-2.25-2.11c-0.69-1.15-1.07-2.44-1.13-3.87c-0.06-1.43,0.15-2.72,0.62-3.87
		c0.44-1.12,1.2-2.03,2.27-2.74c1.07-0.71,2.39-1.07,3.95-1.07h0.31c0.93,0,1.86,0.21,2.79,0.62c0.93,0.42,1.72,1.04,2.38,1.87
		c0.65,0.83,1.04,1.84,1.16,3.02h-3.84c-0.14-0.76-0.45-1.32-0.95-1.68c-0.5-0.35-1.01-0.53-1.54-0.53h-0.31
		c-0.73,0-1.3,0.14-1.71,0.41c-0.42,0.27-0.75,0.73-1,1.37c-0.25,0.64-0.36,1.46-0.32,2.45c0.04,0.99,0.23,1.76,0.57,2.3
		c0.29,0.49,0.62,0.84,0.99,1.04c0.37,0.2,0.86,0.31,1.45,0.31h0.33c0.52,0,1.04-0.18,1.54-0.53c0.5-0.36,0.82-0.92,0.95-1.68h3.84
		C371.05,214.03,370.67,215.03,370.02,215.86"/>
	<path style="fill:#FFFFFF;" d="M374.2,201.17c-0.42-0.36-0.63-0.82-0.63-1.36v-0.08c0-0.54,0.21-0.99,0.63-1.36
		c0.42-0.36,0.94-0.55,1.55-0.55c0.61,0,1.13,0.18,1.55,0.55c0.42,0.36,0.64,0.82,0.64,1.36v0.08c0,0.54-0.21,0.99-0.64,1.36
		c-0.42,0.37-0.94,0.55-1.55,0.55C375.14,201.71,374.62,201.53,374.2,201.17 M373.84,204h3.81v14.22h-3.81V204z"/>
	<path style="fill:#FFFFFF;" d="M381.1,204h3.81v20.07h-3.81V204z M387.96,215.3h0.08l0.76,3.05h-0.08c-1.63,0-2.84-0.58-3.65-1.73
		c-0.8-1.15-1.28-2.79-1.43-4.9l1.17-0.25c0.03,1.19,0.3,2.12,0.81,2.81C386.13,214.96,386.91,215.3,387.96,215.3 M388.88,203.87
		h0.08l-0.76,3.05h-0.08c-1.05,0-1.85,0.3-2.41,0.9c-0.56,0.6-0.86,1.38-0.89,2.35l-1.07-0.2c0.12-1.93,0.61-3.43,1.47-4.5
		C386.08,204.41,387.3,203.87,388.88,203.87 M388.93,203.87h0.05c1.05,0,2.03,0.28,2.93,0.85c0.91,0.57,1.63,1.38,2.18,2.45
		c0.55,1.07,0.83,2.31,0.83,3.73c0,1.47-0.25,2.77-0.76,3.9c-0.51,1.13-1.22,2-2.15,2.62c-0.92,0.62-1.98,0.93-3.16,0.93h-0.08
		l-0.76-3.05h0.08c0.96,0,1.71-0.38,2.23-1.14c0.53-0.76,0.79-1.8,0.79-3.12c0-1.27-0.27-2.27-0.8-3.01c-0.53-0.74-1.23-1.1-2.1-1.1
		h-0.05L388.93,203.87z"/>
	<path style="fill:#FFFFFF;" d="M400.01,217.5c-0.91-0.57-1.63-1.38-2.18-2.45c-0.55-1.07-0.83-2.31-0.83-3.73
		c0-1.47,0.25-2.77,0.76-3.9c0.51-1.13,1.22-2,2.15-2.62c0.92-0.62,1.98-0.93,3.16-0.93h0.08l0.76,3.05h-0.08
		c-0.96,0-1.71,0.38-2.23,1.14c-0.52,0.76-0.79,1.8-0.79,3.12c0,1.27,0.27,2.27,0.8,3.01c0.53,0.74,1.23,1.1,2.1,1.1h0.05
		l-0.76,3.05h-0.05C401.9,218.35,400.92,218.07,400.01,217.5 M403.74,215.3h0.08c1.05,0,1.85-0.3,2.41-0.9
		c0.56-0.6,0.86-1.38,0.89-2.35l1.07,0.2c-0.12,1.93-0.61,3.43-1.47,4.5c-0.86,1.07-2.08,1.6-3.66,1.6h-0.08L403.74,215.3z
		 M403.13,203.87h0.08c1.63,0,2.84,0.58,3.64,1.73c0.8,1.15,1.28,2.79,1.43,4.9l-1.17,0.25c-0.03-1.18-0.3-2.12-0.81-2.81
		c-0.51-0.69-1.29-1.03-2.34-1.03h-0.08L403.13,203.87z M407.01,204h3.81v14.22h-3.81V204z"/>
	<path style="fill:#FFFFFF;" d="M415.2,216.99c-0.8-0.82-1.21-1.97-1.21-3.44v-15.39h3.81v15.39c0,0.51,0.03,0.85,0.08,1.02
		c0.05,0.17,0.16,0.27,0.33,0.3c0.17,0.03,0.54,0.05,1.12,0.05v3.3C417.38,218.22,416.01,217.81,415.2,216.99"/>
	<path style="fill:#FFFFFF;" d="M422.1,201.17c-0.42-0.36-0.63-0.82-0.63-1.36v-0.08c0-0.54,0.21-0.99,0.63-1.36
		c0.42-0.36,0.94-0.55,1.55-0.55c0.61,0,1.12,0.18,1.55,0.55c0.42,0.36,0.64,0.82,0.64,1.36v0.08c0,0.54-0.21,0.99-0.64,1.36
		c-0.42,0.37-0.94,0.55-1.55,0.55C423.04,201.71,422.52,201.53,422.1,201.17 M421.74,204h3.81v14.22h-3.81V204z"/>
	<path style="fill:#FFFFFF;" d="M437.16,207.05h-9.3v-2.79h9.3V207.05z M437.16,218.22h-2.18c-1.47,0-2.65-0.37-3.52-1.12
		c-0.87-0.74-1.31-1.85-1.31-3.33v-14.6h3.81v14.6c0,0.37,0.02,0.63,0.05,0.78c0.03,0.14,0.12,0.24,0.25,0.29
		c0.14,0.05,0.37,0.08,0.71,0.08h2.18V218.22z"/>
	<path style="fill:#FFFFFF;" d="M440.31,201.17c-0.42-0.36-0.64-0.82-0.64-1.36v-0.08c0-0.54,0.21-0.99,0.64-1.36
		c0.42-0.36,0.94-0.55,1.55-0.55c0.61,0,1.12,0.18,1.55,0.55c0.42,0.36,0.64,0.82,0.64,1.36v0.08c0,0.54-0.21,0.99-0.64,1.36
		c-0.42,0.37-0.94,0.55-1.55,0.55C441.25,201.71,440.74,201.53,440.31,201.17 M439.96,204h3.81v14.22h-3.81V204z"/>
	<path style="fill:#FFFFFF;" d="M453.57,218.35h-0.1c-1.39,0-2.62-0.28-3.7-0.85c-1.08-0.57-1.91-1.38-2.52-2.45
		c-0.6-1.07-0.9-2.31-0.9-3.73c0-1.27,0.25-2.47,0.76-3.61c0.51-1.14,1.3-2.06,2.36-2.77c1.07-0.71,2.39-1.07,3.96-1.07
		c1.63,0,2.93,0.36,3.92,1.07c0.99,0.71,1.7,1.62,2.12,2.72c0.42,1.1,0.63,2.28,0.63,3.53v1.02h-3.56v-1.02
		c0-1.42-0.24-2.53-0.74-3.33c-0.49-0.8-1.29-1.19-2.39-1.19c-0.78,0-1.43,0.2-1.95,0.61c-0.52,0.41-0.92,0.96-1.18,1.66
		c-0.26,0.7-0.39,1.5-0.39,2.38c0,0.91,0.14,1.69,0.42,2.32c0.28,0.63,0.69,1.11,1.22,1.43c0.53,0.32,1.17,0.48,1.92,0.48h0.1
		V218.35z M457.76,212.21h-9.5v-2.03h9.5V212.21z M456.85,217.65c-1.02,0.47-2.02,0.7-3,0.7h-0.3v-2.79h0.3
		c0.59,0,1.2-0.14,1.83-0.42c0.63-0.28,1.08-0.61,1.37-1l2.18,1.78C458.66,216.61,457.86,217.19,456.85,217.65"/>
	<path style="fill:#FFFFFF;" d="M468.05,218.35h-0.25c-1.56,0-2.89-0.4-3.99-1.21c-1.1-0.8-1.73-2-1.88-3.59H465
		c0.12,0.71,0.41,1.22,0.86,1.54c0.46,0.31,1.1,0.47,1.93,0.47h0.25V218.35z M467.77,206.67h-0.03c-0.59,0-1.08,0.11-1.46,0.33
		c-0.38,0.22-0.64,0.48-0.79,0.79c-0.14,0.3-0.16,0.58-0.06,0.84c0.13,0.32,0.42,0.55,0.85,0.67c0.43,0.13,1.07,0.25,1.92,0.37
		c0.91,0.14,1.66,0.28,2.25,0.42c0.58,0.14,1.14,0.39,1.68,0.74c0.53,0.35,0.94,0.83,1.23,1.46c0.44,0.95,0.5,1.89,0.18,2.83
		c-0.32,0.94-0.96,1.71-1.93,2.32c-0.97,0.61-2.13,0.91-3.48,0.91h-0.08v-2.79h0.08c0.57,0,1.06-0.11,1.45-0.34
		c0.39-0.23,0.65-0.51,0.79-0.84c0.14-0.33,0.14-0.64,0-0.93c-0.17-0.37-0.49-0.64-0.97-0.79c-0.47-0.15-1.18-0.3-2.11-0.43
		c-0.86-0.12-1.58-0.24-2.15-0.38c-0.57-0.14-1.1-0.38-1.61-0.72c-0.51-0.35-0.89-0.83-1.14-1.44c-0.37-0.93-0.38-1.85-0.03-2.75
		c0.36-0.91,1.01-1.64,1.97-2.21c0.96-0.57,2.1-0.85,3.42-0.85h0.03V206.67z M469.47,207.07c-0.44-0.27-1-0.41-1.68-0.41h-0.05
		v-2.79h0.05c0.91,0,1.78,0.17,2.59,0.49c0.81,0.33,1.49,0.83,2.03,1.49c0.54,0.66,0.86,1.46,0.96,2.41h-3.07
		C470.19,207.74,469.91,207.34,469.47,207.07"/>
	<path style="fill:#FFFFFF;" d="M538.14,199.17h3.81v19.05h-3.81V199.17z M552.21,209.84h-12.17v-3.3h12.17V209.84z M550.23,199.17
		h3.81v19.05h-3.81V199.17z"/>
	<path style="fill:#FFFFFF;" d="M570.45,214.78c-0.66,1.11-1.55,1.98-2.68,2.62c-1.13,0.64-2.36,0.95-3.7,0.95
		c-1.35,0-2.59-0.32-3.71-0.95c-1.12-0.64-2.01-1.5-2.67-2.6c-0.66-1.1-0.99-2.33-0.99-3.68c0-1.35,0.33-2.58,0.99-3.68
		c0.66-1.1,1.55-1.97,2.67-2.6c1.12-0.63,2.35-0.95,3.71-0.95c1.34,0,2.57,0.32,3.7,0.95c1.13,0.64,2.02,1.51,2.68,2.62
		c0.66,1.11,0.99,2.33,0.99,3.67C571.44,212.45,571.11,213.67,570.45,214.78 M567.13,209.08c-0.33-0.59-0.77-1.06-1.31-1.4
		c-0.54-0.34-1.12-0.51-1.75-0.51c-0.63,0-1.22,0.17-1.77,0.5c-0.55,0.33-0.99,0.8-1.31,1.4c-0.32,0.6-0.48,1.28-0.48,2.04
		c0,0.76,0.16,1.44,0.48,2.05c0.32,0.6,0.76,1.07,1.31,1.4c0.55,0.33,1.14,0.5,1.77,0.5c0.63,0,1.21-0.17,1.75-0.51
		c0.54-0.34,0.98-0.8,1.31-1.4c0.33-0.59,0.5-1.27,0.5-2.03C567.63,210.35,567.46,209.67,567.13,209.08"/>
	<path style="fill:#FFFFFF;" d="M578.96,218.35h-0.08c-0.93,0-1.76-0.25-2.5-0.75c-0.74-0.5-1.32-1.24-1.75-2.22
		c-0.43-0.98-0.65-2.16-0.65-3.53V204h3.81v7.85c0,1.03,0.17,1.82,0.51,2.37c0.34,0.55,0.87,0.83,1.6,0.83h0.08L578.96,218.35z
		 M584.1,214.06c-0.33,1.15-0.91,2.16-1.74,3.01c-0.83,0.86-1.95,1.28-3.35,1.28h-0.08l1.02-3.3h0.08c0.91,0,1.64-0.22,2.17-0.66
		c0.53-0.44,0.9-0.98,1.09-1.61c0.2-0.63,0.29-1.28,0.29-1.94h1.02C584.59,211.83,584.43,212.91,584.1,214.06 M587.31,218.22h-3.81
		V204h3.81V218.22z"/>
	<path style="fill:#FFFFFF;" d="M596.08,218.35h-0.25c-1.56,0-2.89-0.4-3.99-1.21c-1.1-0.8-1.73-2-1.88-3.59h3.07
		c0.12,0.71,0.41,1.22,0.86,1.54c0.46,0.31,1.1,0.47,1.93,0.47h0.25V218.35z M595.8,206.67h-0.03c-0.59,0-1.08,0.11-1.46,0.33
		c-0.38,0.22-0.65,0.48-0.79,0.79c-0.14,0.3-0.16,0.58-0.06,0.84c0.14,0.32,0.42,0.55,0.85,0.67c0.43,0.13,1.07,0.25,1.92,0.37
		c0.92,0.14,1.66,0.28,2.25,0.42c0.58,0.14,1.14,0.39,1.68,0.74s0.94,0.83,1.23,1.46c0.44,0.95,0.5,1.89,0.18,2.83
		c-0.32,0.94-0.96,1.71-1.93,2.32c-0.97,0.61-2.13,0.91-3.48,0.91h-0.08v-2.79h0.08c0.58,0,1.06-0.11,1.45-0.34
		c0.39-0.23,0.65-0.51,0.79-0.84c0.13-0.33,0.13-0.64,0-0.93c-0.17-0.37-0.49-0.64-0.97-0.79c-0.47-0.15-1.18-0.3-2.11-0.43
		c-0.86-0.12-1.58-0.24-2.15-0.38c-0.57-0.14-1.1-0.38-1.61-0.72c-0.51-0.35-0.89-0.83-1.14-1.44c-0.37-0.93-0.38-1.85-0.03-2.75
		c0.36-0.91,1.01-1.64,1.97-2.21c0.96-0.57,2.09-0.85,3.42-0.85h0.03V206.67z M597.5,207.07c-0.44-0.27-1-0.41-1.68-0.41h-0.05
		v-2.79h0.05c0.91,0,1.78,0.17,2.59,0.49c0.81,0.33,1.49,0.83,2.03,1.49c0.54,0.66,0.86,1.46,0.97,2.41h-3.07
		C598.22,207.74,597.94,207.34,597.5,207.07"/>
	<path style="fill:#FFFFFF;" d="M605.07,201.17c-0.42-0.36-0.64-0.82-0.64-1.36v-0.08c0-0.54,0.21-0.99,0.64-1.36
		c0.42-0.36,0.94-0.55,1.55-0.55c0.61,0,1.13,0.18,1.55,0.55c0.42,0.36,0.64,0.82,0.64,1.36v0.08c0,0.54-0.21,0.99-0.64,1.36
		c-0.42,0.37-0.94,0.55-1.55,0.55C606.01,201.71,605.49,201.53,605.07,201.17 M604.71,204h3.81v14.22h-3.81V204z"/>
	<path style="fill:#FFFFFF;" d="M611.95,204h3.81v14.22h-3.81V204z M615.16,208.17c0.33-1.15,0.91-2.16,1.74-3.01
		c0.83-0.86,1.95-1.28,3.35-1.28h0.08l-1.02,3.3h-0.08c-0.91,0-1.64,0.22-2.17,0.66c-0.53,0.44-0.9,0.98-1.09,1.61
		c-0.2,0.64-0.29,1.28-0.29,1.94h-1.02C614.67,210.39,614.83,209.32,615.16,208.17 M620.31,203.87h0.08c0.93,0,1.76,0.25,2.5,0.75
		c0.74,0.5,1.32,1.24,1.75,2.22c0.43,0.98,0.65,2.16,0.65,3.53v7.85h-3.81v-7.85c0-1.03-0.17-1.82-0.51-2.37
		c-0.34-0.55-0.87-0.83-1.6-0.83h-0.08L620.31,203.87z"/>
	<path style="fill:#FFFFFF;" d="M630.96,217.5c-0.91-0.57-1.63-1.38-2.18-2.45c-0.55-1.07-0.83-2.31-0.83-3.73
		c0-1.47,0.25-2.77,0.76-3.9c0.51-1.13,1.22-2,2.15-2.62c0.92-0.62,1.98-0.93,3.16-0.93h0.08l0.76,3.05h-0.08
		c-0.96,0-1.71,0.38-2.23,1.14c-0.52,0.76-0.79,1.8-0.79,3.12c0,1.27,0.27,2.27,0.8,3.01c0.53,0.74,1.23,1.1,2.1,1.1h0.05
		l-0.76,3.05h-0.05C632.85,218.35,631.87,218.07,630.96,217.5 M641.77,204v13.79c0,1.1-0.27,2.06-0.8,2.88
		c-0.53,0.82-1.29,1.45-2.26,1.89c-0.97,0.44-2.1,0.66-3.39,0.66h-5.39v-3.05h5.39c0.91,0,1.58-0.19,2.01-0.57
		c0.42-0.38,0.63-0.99,0.63-1.82V204H641.77z M634.68,215.3h0.08c1.05,0,1.85-0.3,2.41-0.9c0.56-0.6,0.85-1.39,0.89-2.35l1.07,0.2
		c-0.12,1.93-0.61,3.43-1.47,4.5c-0.86,1.07-2.08,1.6-3.66,1.6h-0.08L634.68,215.3z M634.07,203.87h0.08c1.62,0,2.84,0.58,3.64,1.73
		c0.8,1.15,1.28,2.78,1.44,4.9l-1.17,0.25c-0.04-1.18-0.3-2.12-0.81-2.81c-0.51-0.69-1.29-1.03-2.34-1.03h-0.08L634.07,203.87z"/>
	<path style="fill:#FFFFFF;" d="M498.94,204.01h3.81v14.22h-3.81V204.01z M502.15,208.18c0.33-1.15,0.91-2.16,1.74-3.01
		c0.83-0.86,1.95-1.28,3.35-1.28h0.08l-1.02,3.3h-0.08c-0.91,0-1.64,0.22-2.17,0.66c-0.53,0.44-0.9,0.98-1.09,1.61
		c-0.19,0.63-0.29,1.28-0.29,1.94h-1.02C501.65,210.41,501.82,209.33,502.15,208.18 M507.29,203.89h0.08c0.93,0,1.76,0.25,2.5,0.75
		c0.74,0.5,1.32,1.24,1.75,2.22c0.43,0.98,0.65,2.16,0.65,3.53v7.85h-3.81v-7.85c0-1.03-0.17-1.82-0.51-2.37
		c-0.34-0.55-0.87-0.83-1.6-0.83h-0.08L507.29,203.89z"/>
	<path style="fill:#FFFFFF;" d="M528.78,218.24h-3.81v-20.07h3.81V218.24z M521.92,206.93h-0.08l-0.76-3.05h0.08
		c1.63,0,2.84,0.58,3.65,1.73c0.8,1.15,1.28,2.79,1.43,4.9l-1.17,0.25c-0.03-1.19-0.3-2.12-0.81-2.81
		C523.75,207.28,522.97,206.93,521.92,206.93 M521.01,218.36h-0.08l0.76-3.05h0.08c1.05,0,1.85-0.3,2.41-0.9
		c0.56-0.6,0.86-1.38,0.89-2.35l1.07,0.2c-0.12,1.93-0.61,3.43-1.47,4.5C523.8,217.83,522.58,218.36,521.01,218.36 M520.96,218.36
		h-0.05c-1.05,0-2.03-0.28-2.93-0.85c-0.91-0.57-1.63-1.38-2.18-2.45c-0.55-1.07-0.83-2.31-0.83-3.73c0-1.47,0.25-2.77,0.76-3.9
		c0.51-1.13,1.22-2,2.15-2.62c0.92-0.62,1.98-0.93,3.16-0.93h0.08l0.76,3.05h-0.08c-0.96,0-1.71,0.38-2.23,1.14
		c-0.53,0.76-0.79,1.8-0.79,3.12c0,1.27,0.27,2.27,0.8,3.01c0.53,0.74,1.23,1.11,2.1,1.11h0.05L520.96,218.36z"/>
	<path style="fill:#FFFFFF;" d="M485.05,217.51c-0.91-0.57-1.63-1.38-2.18-2.45c-0.55-1.07-0.82-2.31-0.82-3.73
		c0-1.47,0.25-2.77,0.76-3.9c0.51-1.13,1.22-2,2.15-2.62c0.92-0.62,1.98-0.93,3.16-0.93h0.08l0.76,3.05h-0.08
		c-0.96,0-1.71,0.38-2.23,1.14c-0.52,0.76-0.79,1.8-0.79,3.12c0,1.27,0.27,2.27,0.8,3.01c0.53,0.74,1.23,1.1,2.1,1.1h0.05
		l-0.76,3.05h-0.05C486.94,218.36,485.96,218.08,485.05,217.51 M488.77,215.32h0.08c1.05,0,1.85-0.3,2.41-0.9
		c0.56-0.6,0.86-1.38,0.89-2.35l1.07,0.2c-0.12,1.93-0.61,3.43-1.47,4.5c-0.86,1.07-2.08,1.6-3.66,1.6h-0.08L488.77,215.32z
		 M488.16,203.89h0.08c1.62,0,2.84,0.58,3.64,1.73c0.8,1.15,1.28,2.79,1.43,4.9l-1.17,0.25c-0.03-1.18-0.3-2.12-0.81-2.81
		c-0.51-0.69-1.29-1.03-2.34-1.03h-0.08L488.16,203.89z M492.05,204.01h3.81v14.22h-3.81V204.01z"/>
</g>
</svg>
